<?xml version="1.0" standalone="no"?>
<!DOCTYPE svg PUBLIC "-//W3C//DTD SVG 1.1//EN" "http://www.w3.org/Graphics/SVG/1.1/DTD/svg11.dtd" >
<svg xmlns="http://www.w3.org/2000/svg" xmlns:xlink="http://www.w3.org/1999/xlink" version="1.1">
<metadata>
Created by FontForge 20170924 at Tue May 16 12:14:49 2023
 By www
Copyright (c) 2021 Kika Tech, Inc. All rights reserved.
</metadata>
<defs>
<font id="HFMonorita-Bold" horiz-adv-x="600" >
  <font-face 
    font-family="HFMonorita Bold"
    font-weight="700"
    font-stretch="normal"
    units-per-em="1000"
    panose-1="0 0 0 0 0 0 0 0 0 0"
    ascent="800"
    descent="-200"
    x-height="550"
    cap-height="720"
    bbox="-8 -209 595 909"
    underline-thickness="50"
    underline-position="-125"
    unicode-range="U+0020-2122"
  />
    <missing-glyph />
    <glyph glyph-name="space" unicode=" " 
 />
    <glyph glyph-name="exclam" unicode="!" 
d="M233 720h133l-15 -511h-106zM228 61q0 29 19.5 48.5t51.5 19.5t52.5 -19.5t20.5 -48.5q0 -30 -20.5 -49t-52.5 -19t-51.5 19t-19.5 49z" />
    <glyph glyph-name="quotedbl" unicode="&#x22;" 
d="M161 720h131l-15 -224h-101zM308 720h131l-15 -224h-101z" />
    <glyph glyph-name="numbersign" unicode="#" 
d="M228 720h113l-34 -173h57l34 173h112l-33 -173h79l-17 -98h-81l-32 -169h87l-17 -98h-89l-34 -182h-114l35 182h-57l-35 -182h-113l35 182h-82l17 98h83l33 169h-89l17 98h91zM256 280h57l32 169h-57z" />
    <glyph glyph-name="dollar" unicode="$" 
d="M251 769h102v-77q66 -13 109.5 -49t68.5 -81l-90 -63q-13 21 -28 39.5t-33.5 32.5t-41 22.5t-49.5 8.5q-48 0 -73.5 -22.5t-25.5 -59.5q0 -24 11.5 -41t32 -30t50 -23.5t65.5 -21.5q45 -14 80 -31.5t59.5 -41t37.5 -54t13 -71.5q0 -83 -51 -132.5t-135 -58.5v-83h-102v88
q-67 16 -113 58.5t-77 99.5l93 62q15 -25 31.5 -48.5t36.5 -42t44 -29.5t54 -11q47 0 71.5 26.5t24.5 68.5q0 27 -10.5 45t-30 30.5t-47 22t-61.5 18.5q-37 11 -73 25.5t-64.5 37t-45.5 54t-17 75.5q0 75 49.5 123.5t134.5 59.5v74z" />
    <glyph glyph-name="percent" unicode="%" 
d="M31 539q0 92 39 140t106 48t105.5 -46.5t38.5 -137.5t-38.5 -141t-107.5 -50q-66 0 -104.5 47.5t-38.5 139.5zM326 402l98 318h118l-111 -318h-105zM140 540q0 -48 8 -74.5t28 -26.5q35 0 35 104q0 50 -7.5 73.5t-25.5 23.5q-38 0 -38 -100zM279 180q0 92 39 140t106 48
t105.5 -46.5t38.5 -137.5t-38.5 -141t-107.5 -50q-66 0 -104.5 47.5t-38.5 139.5zM274 319l-97 -319h-118l111 319h104zM388 181q0 -48 8 -74.5t28 -26.5q35 0 35 104q0 50 -7.5 73.5t-25.5 23.5q-38 0 -38 -100z" />
    <glyph glyph-name="ampersand" unicode="&#x26;" 
d="M272 727q59 0 104.5 -31t74.5 -88l-100 -59q-17 35 -37 58.5t-43 23.5q-22 0 -39 -19t-17 -54q0 -12 3 -23.5t10 -25.5t18.5 -32t28.5 -42l147 -209q6 20 10 42.5t7 44.5l112 -21q-6 -41 -20 -84.5t-39 -81.5l88 -126h-130l-32 45q-31 -26 -67 -39t-82 -13q-48 0 -90 15
t-72.5 41.5t-48.5 63t-18 80.5q0 32 10 60t27 53.5t39.5 48t47.5 42.5q-28 42 -48 82.5t-20 85.5q0 36 14 66t38 51.5t56 33t68 11.5zM221 318q-29 -26 -48 -54.5t-19 -63.5q0 -25 9.5 -46t26 -35t37.5 -22t43 -8q26 0 47 10t41 29z" />
    <glyph glyph-name="quotesingle" unicode="'" 
d="M235 720h132l-16 -224h-100z" />
    <glyph glyph-name="parenleft" unicode="(" 
d="M490 769q-30 -51 -55 -102.5t-43 -104.5t-28.5 -109t-10.5 -117q0 -65 11.5 -125t30.5 -115.5t44 -106t52 -96.5h-111q-27 42 -53 88t-46.5 99.5t-32.5 115t-12 133.5q0 74 12.5 136.5t33 116.5t46.5 100.5t52 86.5h110z" />
    <glyph glyph-name="parenright" unicode=")" 
d="M220 769q26 -40 52 -86.5t46.5 -100.5t33.5 -116.5t13 -136.5q0 -72 -12.5 -133.5t-32.5 -115t-46.5 -99.5t-53.5 -88h-110q27 46 52 96.5t44 106t30.5 115.5t11.5 125q0 61 -10.5 117t-28.5 109t-43.5 104.5t-55.5 102.5h110z" />
    <glyph glyph-name="asterisk" unicode="*" 
d="M110 192l115 136l-169 41l37 111l158 -64l-14 179h125l-12 -180l158 66l35 -111l-166 -42l118 -139l-100 -69l-94 150l-93 -151z" />
    <glyph glyph-name="plus" unicode="+" 
d="M60 416h181v191h118v-191h181v-98h-181v-192h-118v192h-181v98z" />
    <glyph glyph-name="comma" unicode="," 
d="M378 67q0 -56 -26.5 -103t-67.5 -80l-50 39q16 15 27.5 33.5t16.5 39.5q-25 7 -39.5 25.5t-14.5 45.5q0 33 21 54t56 21q34 0 55.5 -21t21.5 -54z" />
    <glyph glyph-name="hyphen" unicode="-" 
d="M120 344h360v-98h-360v98z" />
    <glyph glyph-name="hyphen" unicode="&#x2011;" 
d="M120 344h360v-98h-360v98z" />
    <glyph glyph-name="period" unicode="." 
d="M224 64q0 33 20.5 50.5t55.5 17.5q34 0 55 -17.5t21 -50.5q0 -34 -21 -52.5t-55 -18.5q-35 0 -55.5 18.5t-20.5 52.5z" />
    <glyph glyph-name="slash" unicode="/" 
d="M508 720l-289 -720h-126l289 720h126z" />
    <glyph glyph-name="zero" unicode="0" 
d="M53 365q0 75 11 141t39 115t76 77.5t121 28.5q74 0 122 -28.5t75.5 -77.5t38.5 -115t11 -141q0 -76 -11 -144t-39 -118.5t-76 -80t-121 -29.5t-121 30t-76 81t-39 118.5t-11 142.5zM175 364q0 -65 6.5 -116t21 -86.5t38.5 -54t59 -18.5t59 18.5t38.5 53.5t21 86t6.5 116
q0 132 -27.5 200t-97.5 68t-97.5 -68t-27.5 -199zM226 365q0 37 20.5 53.5t53.5 16.5q32 0 53 -16.5t21 -53.5q0 -38 -21 -54.5t-53 -16.5q-33 0 -53.5 16.5t-20.5 54.5z" />
    <glyph glyph-name="one" unicode="1" 
d="M71 629l215 91h88v-621h148v-99h-433v99h171v499l-150 -61z" />
    <glyph glyph-name="two" unicode="2" 
d="M59 580q20 30 45.5 56.5t56 47t66 32t77.5 11.5q52 0 93.5 -17t71 -45.5t45 -67t15.5 -80.5q0 -27 -7.5 -54t-24 -57t-44 -64.5t-67.5 -78.5l-153 -167h308v-96h-457v77l200 223q36 41 61 72t40 57t21.5 48t6.5 43q0 49 -28 80t-73 31q-24 0 -47.5 -10.5t-44.5 -27.5
t-39 -38.5t-33 -42.5z" />
    <glyph glyph-name="three" unicode="3" 
d="M62 580q16 25 39 51t53 47.5t67.5 35t83.5 13.5q50 0 91.5 -16t71.5 -44t47 -65t17 -78q0 -47 -24.5 -85.5t-71.5 -64.5q54 -28 82.5 -74t28.5 -102q0 -48 -17.5 -86t-49 -64.5t-74 -40.5t-92.5 -14t-90 14t-71.5 37t-56 53t-42.5 61l88 70q14 -25 31.5 -49.5t38.5 -44.5
t46 -32.5t54 -12.5q23 0 44 7.5t37 22t25 36.5t9 50q0 29 -10 51.5t-26 37.5t-37 22.5t-43 7.5h-97v96h87q55 0 84.5 25.5t29.5 73.5q0 51 -30.5 81.5t-73.5 30.5q-25 0 -48.5 -11.5t-44 -28.5t-37.5 -38t-30 -41z" />
    <glyph glyph-name="four" unicode="4" 
d="M379 720h97v-470h87v-95h-87v-155h-113v155h-319v70zM184 250h179v254z" />
    <glyph glyph-name="five" unicode="5" 
d="M129 720h374v-96h-270l-14 -180q45 18 94 18q47 0 89.5 -16.5t75 -47.5t51.5 -75.5t19 -99.5q0 -52 -17.5 -94.5t-49 -72.5t-75 -46.5t-96.5 -16.5q-82 0 -144.5 40.5t-104.5 109.5l88 72q12 -23 29 -45.5t37.5 -40.5t45 -29t51.5 -11q52 0 84 36t32 96q0 34 -10.5 61
t-28 46t-39.5 29t-46 10q-29 0 -61.5 -16t-61.5 -38l-78 50z" />
    <glyph glyph-name="six" unicode="6" 
d="M315 727q62 0 109 -23.5t83 -58.5l-62 -82q-30 27 -63.5 47.5t-65.5 20.5q-58 0 -91.5 -58t-39.5 -164q29 23 65 37.5t77 14.5q44 0 82 -17t66.5 -47.5t45 -72.5t16.5 -93q0 -43 -13 -86t-40.5 -76.5t-69.5 -54.5t-100 -21h-5q-63 0 -109.5 26.5t-77 75t-45.5 116.5
t-15 150q0 178 66 272t187 94zM188 274q18 -185 121 -185q29 0 50 12.5t35 33t21 46t7 52.5q0 62 -29.5 97.5t-71.5 35.5q-33 0 -67.5 -26.5t-65.5 -65.5z" />
    <glyph glyph-name="seven" unicode="7" 
d="M65 720h469v-79q-47 -66 -84 -136.5t-64 -148.5t-42.5 -166t-20.5 -190h-127q6 169 59.5 327t141.5 297h-332v96z" />
    <glyph glyph-name="eight" unicode="8" 
d="M298 727q48 0 89.5 -14.5t72 -40t47.5 -59.5t17 -74q0 -30 -10.5 -55.5t-27 -46.5t-36.5 -37t-39 -28q24 -13 47.5 -30.5t42.5 -40t30.5 -51t11.5 -64.5q0 -45 -18.5 -80.5t-51 -60.5t-77 -38.5t-96.5 -13.5t-96 13t-76.5 38t-51 62t-18.5 84q0 35 10.5 63.5t27.5 51
t39 40t45 30.5q-42 26 -72.5 64.5t-30.5 97.5q0 41 16.5 76t46 60.5t70 39.5t88.5 14zM310 419q54 32 75 58t21 56q0 45 -31 71.5t-79 26.5q-42 0 -71.5 -22.5t-29.5 -65.5q0 -44 32 -72t83 -52zM281 325q-43 -23 -74.5 -55.5t-31.5 -75.5q0 -45 32.5 -75t93.5 -30
q59 0 91.5 27t32.5 69q0 26 -12.5 46.5t-33 37.5t-46 30.5t-52.5 25.5z" />
    <glyph glyph-name="nine" unicode="9" 
d="M283 -10q-63 0 -108 23.5t-83 58.5l63 84q32 -30 62.5 -50t62.5 -20q60 0 94 56.5t41 160.5q-28 -24 -63 -40.5t-77 -16.5q-46 0 -85.5 17.5t-67.5 49t-44 74.5t-16 94q0 43 13.5 86.5t41.5 78t71 56.5t103 22q120 0 183 -94t63 -271q0 -180 -65.5 -274.5t-188.5 -94.5z
M414 424q-8 104 -38 154t-84 50q-29 0 -50.5 -11.5t-36 -31.5t-21.5 -48t-7 -60q0 -30 8.5 -55t23 -43t34 -27.5t41.5 -9.5q32 0 66.5 21.5t63.5 60.5z" />
    <glyph glyph-name="colon" unicode=":" 
d="M224 435q0 33 20.5 50.5t55.5 17.5q34 0 55 -17.5t21 -50.5t-21 -51.5t-55 -18.5q-35 0 -55.5 18.5t-20.5 51.5zM224 64q0 33 20.5 50.5t55.5 17.5q34 0 55 -17.5t21 -50.5q0 -34 -21 -52.5t-55 -18.5q-35 0 -55.5 18.5t-20.5 52.5z" />
    <glyph glyph-name="semicolon" unicode=";" 
d="M224 435q0 33 20.5 50.5t55.5 17.5q34 0 55 -17.5t21 -50.5t-21 -51.5t-55 -18.5q-35 0 -55.5 18.5t-20.5 51.5zM378 67q0 -63 -26.5 -106.5t-67.5 -76.5l-50 39q16 15 27.5 33.5t16.5 39.5q-25 7 -39.5 25.5t-14.5 45.5q0 33 21 54t56 21q34 0 55.5 -21t21.5 -54z" />
    <glyph glyph-name="less" unicode="&#x3c;" 
d="M94 410l412 277v-114l-301 -200l301 -192v-114l-412 267v76z" />
    <glyph glyph-name="equal" unicode="=" 
d="M96 498h407v-97h-407v97zM96 312h407v-98h-407v98z" />
    <glyph glyph-name="greater" unicode="&#x3e;" 
d="M507 410v-76l-412 -267v114l300 192l-300 200v114z" />
    <glyph glyph-name="question" unicode="?" 
d="M83 593q18 29 39.5 53.5t48 42.5t58 28t70.5 10q47 0 85 -14.5t64.5 -39.5t41 -58.5t14.5 -71.5q0 -29 -8 -52.5t-21 -44t-29.5 -37.5t-33.5 -34q-21 -21 -34.5 -38t-22 -32t-12 -28.5t-3.5 -28.5v-39h-109v41q0 28 7 51t19.5 43.5t29.5 39.5t36 38q25 25 44.5 51
t19.5 64q0 40 -23 67t-65 27q-21 0 -39 -9t-34 -24t-30.5 -34.5t-28.5 -39.5zM218 61q0 29 20 48.5t52 19.5q31 0 51.5 -19.5t20.5 -48.5q0 -30 -20.5 -49t-51.5 -19q-32 0 -52 19t-20 49z" />
    <glyph glyph-name="at" unicode="@" 
d="M544 111q-42 -22 -79 -37t-81 -15q-49 0 -84 17t-57 47.5t-32.5 71.5t-10.5 89q0 104 42.5 161.5t114.5 57.5q18 0 32.5 -3.5t27.5 -9.5q-8 64 -31 102t-76 38q-44 0 -71 -26.5t-41.5 -73.5t-19.5 -111.5t-5 -139.5q0 -58 5.5 -110t22 -91t45.5 -61.5t76 -22.5q21 0 48 5
t56 13l23 -92q-32 -11 -62 -17t-65 -6q-82 0 -134.5 30.5t-82.5 82.5t-41.5 121.5t-11.5 147.5q0 102 12 185t40.5 141.5t76 90t119.5 31.5q74 0 121 -26t74.5 -71t38 -106.5t10.5 -132.5v-280zM423 156v185v24q-32 41 -56 41q-15 0 -24.5 -11t-15.5 -30t-8.5 -43t-2.5 -50
q0 -57 19.5 -91.5t55.5 -34.5q14 0 32 10z" />
    <glyph glyph-name="A" unicode="A" 
d="M366 720q33 -102 60.5 -188.5t52.5 -170.5t48.5 -171t48.5 -190h-122q-13 59 -25.5 109.5t-24.5 97.5h-209q-12 -48 -24 -98.5t-26 -108.5h-121q26 104 48.5 190t46.5 169t52 170t63 191h132zM379 305q-18 63 -37 126t-42 135q-23 -72 -42 -135t-36 -126h157z" />
    <glyph glyph-name="B" unicode="B" 
d="M61 720h221q48 0 89 -12.5t70 -36t45.5 -57.5t16.5 -78q0 -47 -22 -84.5t-58 -63.5q52 -24 88 -68.5t36 -107.5q0 -59 -19.5 -99.5t-53 -65.5t-79 -36t-96.5 -11h-238v720zM180 425h109q42 0 67 23t25 75q0 54 -25 77.5t-67 23.5h-109v-199zM180 98h122q60 0 91.5 28
t31.5 83q0 31 -9.5 54t-26.5 38t-40 22t-50 7h-119v-232z" />
    <glyph glyph-name="C" unicode="C" 
d="M318 727q45 0 84 -14.5t69.5 -42t51.5 -68t30 -92.5l-116 -28q-7 32 -17.5 59t-25.5 47t-35.5 31.5t-46.5 11.5q-37 0 -62 -20t-40 -56t-21 -86t-6 -109q0 -63 7 -113.5t22.5 -85.5t40.5 -53.5t61 -18.5q29 0 51.5 12t40.5 32.5t31.5 46t22.5 52.5l103 -56
q-29 -90 -91 -136.5t-156 -46.5q-70 0 -119 25.5t-79 73.5t-43.5 116t-13.5 153q0 79 12 146t41.5 116t79 76.5t124.5 27.5z" />
    <glyph glyph-name="D" unicode="D" 
d="M61 720h222q69 0 119 -24.5t82 -70.5t47.5 -112.5t15.5 -149.5t-15.5 -150t-47.5 -114.5t-82 -73t-119 -25.5h-222v720zM180 100h103q41 0 68.5 18t44 51.5t23 81.5t6.5 108q0 128 -31 196.5t-111 68.5h-103v-524z" />
    <glyph glyph-name="E" unicode="E" 
d="M70 720h438v-97h-319v-207h277v-97h-277v-222h321v-97h-440v720z" />
    <glyph glyph-name="F" unicode="F" 
d="M70 720h440v-98h-321v-222h280v-98h-280v-302h-119v720z" />
    <glyph glyph-name="G" unicode="G" 
d="M298 727q76 0 136.5 -34t90.5 -100l-104 -66q-19 48 -49.5 76t-71.5 28q-37 0 -61.5 -20t-39 -56t-20.5 -86t-6 -109q0 -127 29.5 -199t102.5 -72q22 0 39 7.5t29.5 19.5t22 27.5t16.5 31.5l122 -21q-24 -71 -81 -116t-150 -45q-70 0 -118 25.5t-78 73.5t-43 116t-13 153
q0 79 12 146t40.5 116t76 76.5t118.5 27.5zM278 387h256v-233l-122 21v114h-134v98z" />
    <glyph glyph-name="H" unicode="H" 
d="M61 720h119v-304h239v304h119v-720h-119v318h-239v-318h-119v720z" />
    <glyph glyph-name="I" unicode="I" 
d="M99 720h401v-99h-141v-522h144v-99h-407v99h145v522h-142v99z" />
    <glyph glyph-name="J" unicode="J" 
d="M126 720h365v-490q0 -58 -17.5 -102.5t-47.5 -74.5t-70 -45t-84 -15q-42 0 -76.5 12.5t-62.5 33.5t-48.5 48.5t-32.5 57.5l96 61q22 -48 52 -82.5t70 -34.5q21 0 39.5 9t32.5 27t22.5 44.5t8.5 60.5v394h-247v96z" />
    <glyph glyph-name="K" unicode="K" 
d="M411 720h135q-25 -52 -49.5 -98t-51.5 -89t-59 -85t-72 -87q41 -44 75 -86.5t64.5 -86t58 -90t55.5 -98.5h-141q-44 90 -92 162.5t-113 144.5h-43v-307h-119v720h119v-314h43q63 75 108 151.5t82 162.5z" />
    <glyph glyph-name="L" unicode="L" 
d="M61 720h119v-621h349v-99h-468v720z" />
    <glyph glyph-name="M" unicode="M" 
d="M62 720h126q15 -59 28.5 -110t27 -99t27 -95t29.5 -97q16 50 30.5 96.5t28 94.5t26.5 99.5t28 110.5h125l27 -720h-114l-5 499q-22 -83 -44 -165.5t-49 -163.5h-106q-27 81 -49.5 163t-44.5 164l-4 -497h-114z" />
    <glyph glyph-name="N" unicode="N" 
d="M61 720h117l250 -496v496h110v-720h-117l-249 493v-493h-111v720z" />
    <glyph glyph-name="O" unicode="O" 
d="M53 365q0 75 11 141t39 115t76 77.5t121 28.5q74 0 122 -28.5t75.5 -77.5t38.5 -115t11 -141q0 -76 -11 -144t-39 -118.5t-76 -80t-121 -29.5t-121 30t-76 81t-39 118.5t-11 142.5zM175 364q0 -65 6.5 -116t21 -86.5t38.5 -54t59 -18.5t59 18.5t38.5 53.5t21 86t6.5 116
q0 132 -27.5 200t-97.5 68t-97.5 -68t-27.5 -199z" />
    <glyph glyph-name="P" unicode="P" 
d="M61 720h238q115 0 181.5 -56t66.5 -172q0 -115 -65.5 -170.5t-181.5 -55.5h-120v-264h-119v718zM180 362h120q125 0 125 128q0 68 -33 101t-93 33h-119v-262z" />
    <glyph glyph-name="Q" unicode="Q" 
d="M52 365q0 75 11 141t39 115t76 77.5t121 28.5q74 0 122 -28.5t75.5 -77.5t38.5 -115t11 -141q0 -60 -6.5 -115.5t-23 -101.5t-44 -80.5t-68.5 -53.5q22 -28 60.5 -52t83.5 -43l-67 -86q-70 33 -117.5 74.5t-76.5 85.5q-70 3 -115.5 33.5t-72 81t-37 117t-10.5 140.5z
M174 364q0 -65 6.5 -116t21 -86.5t38.5 -54t59 -18.5t59 18.5t38.5 53.5t21 86t6.5 116q0 132 -27.5 200t-97.5 68t-97.5 -68t-27.5 -199z" />
    <glyph glyph-name="R" unicode="R" 
d="M59 720h238q115 0 181.5 -52t66.5 -166q0 -79 -33 -127.5t-93 -70.5q23 -35 42 -69t38 -70t37.5 -75.5t39.5 -87.5h-140q-16 41 -31 77t-31.5 69.5t-35 67t-41.5 70.5h-119v-284h-119v718zM178 382h120q63 0 94 28.5t31 90.5q0 64 -33 93.5t-93 29.5h-119v-242z" />
    <glyph glyph-name="S" unicode="S" 
d="M290 727q46 0 85 -12.5t70.5 -33t55.5 -46.5t39 -53l-88 -69q-13 22 -29.5 43t-37 37.5t-43.5 27t-50 10.5q-50 0 -80.5 -28.5t-30.5 -68.5q0 -22 11 -39t29.5 -30t44 -24.5t55.5 -23.5l26 -10q41 -16 77.5 -35t64 -44.5t43.5 -59.5t16 -79q0 -46 -17.5 -82.5t-48 -61.5
t-72.5 -38.5t-91 -13.5q-48 0 -88.5 13t-73.5 35t-59 52.5t-45 64.5l88 68q14 -24 32 -48.5t39.5 -44t47.5 -32t56 -12.5q48 0 78.5 27.5t30.5 72.5q0 27 -11.5 46t-32 33.5t-48.5 26.5t-60 24l-36 14q-82 32 -130 75.5t-48 116.5q0 44 17 81t47.5 64t73 42t93.5 15z" />
    <glyph glyph-name="T" unicode="T" 
d="M47 720h507v-98h-195v-622h-119v622h-193v98z" />
    <glyph glyph-name="U" unicode="U" 
d="M61 720h119v-451q0 -39 6.5 -72t20.5 -57t37 -37.5t57 -13.5t56.5 13.5t36 37.5t19.5 57t6 72v451h119v-471q0 -52 -13.5 -98.5t-42 -81.5t-73.5 -55.5t-108 -20.5t-108.5 20.5t-75 55.5t-43 81.5t-13.5 98.5v471z" />
    <glyph glyph-name="V" unicode="V" 
d="M24 720h121q20 -85 37.5 -156t35.5 -137.5t38 -132t44 -140.5q24 75 43.5 140.5t37.5 131.5t36 137t37 157h122q-25 -103 -48.5 -190t-48.5 -171t-52.5 -170.5t-60.5 -188.5h-132q-35 104 -63 191t-52 170t-46.5 169.5t-48.5 189.5z" />
    <glyph glyph-name="W" unicode="W" 
d="M27 720h121q4 -76 8 -145.5t9 -136.5t11 -132t15 -132q8 41 16.5 85.5t16 88t14 85t11.5 76.5h103q6 -36 12.5 -78t14 -86t15.5 -89t16 -87q17 133 27.5 266.5t21.5 284.5h115q-6 -71 -12.5 -133t-13 -119t-14 -111.5t-16.5 -110.5t-19.5 -116.5t-23.5 -129.5h-118
q-17 77 -31 141t-28 132q-14 -68 -29 -132t-35 -141h-118q-16 100 -28.5 186t-23 169.5t-19.5 171.5t-18 193z" />
    <glyph glyph-name="X" unicode="X" 
d="M43 720h133l126 -246l129 246h131l-196 -351l204 -369h-133l-137 259l-138 -259h-132l206 371z" />
    <glyph glyph-name="Y" unicode="Y" 
d="M163 720q18 -46 34.5 -85t32.5 -75t33.5 -72t38.5 -77q20 40 37 76t33 72.5t31.5 75.5t33.5 85h132q-26 -60 -49 -111.5t-47 -101.5t-51.5 -102t-62.5 -112v-293h-119v292q-34 61 -61 113.5t-51.5 102.5t-48 101.5t-49.5 110.5h133z" />
    <glyph glyph-name="Z" unicode="Z" 
d="M88 720h422v-83l-309 -539h337v-98h-477v82l307 540h-280v98z" />
    <glyph glyph-name="bracketleft" unicode="[" 
d="M247 769h228v-98h-117v-680h117v-98h-228v876z" />
    <glyph glyph-name="backslash" unicode="\" 
d="M93 720h126l289 -720h-126z" />
    <glyph glyph-name="bracketright" unicode="]" 
d="M353 769v-876h-227v98h116v680h-116v98h227z" />
    <glyph glyph-name="asciicircum" unicode="^" 
d="M253 727h93q26 -54 48 -101.5t42.5 -94t41 -95t42.5 -104.5h-115q-15 41 -27.5 75t-24.5 65.5t-25 62.5t-28 65q-10 -24 -20.5 -50.5t-23 -58.5t-27.5 -71t-33 -88h-116q23 56 43.5 104.5t40.5 95t42 94t47 101.5z" />
    <glyph glyph-name="underscore" unicode="_" 
d="M3 -48h592v-98h-592v98z" />
    <glyph glyph-name="grave" unicode="`" 
d="M286 773q9 -18 22 -36t27 -35t29 -31.5t27 -24.5l-49 -50q-45 18 -89.5 47.5t-76.5 67.5z" />
    <glyph glyph-name="grave" unicode="&#x2cb;" 
d="M286 773q9 -18 22 -36t27 -35t29 -31.5t27 -24.5l-49 -50q-45 18 -89.5 47.5t-76.5 67.5z" />
    <glyph glyph-name="a" unicode="a" 
d="M281 557q50 0 92.5 -15.5t74.5 -43t50 -64.5t18 -79v-316q-65 -20 -121.5 -33t-117.5 -13q-40 0 -78.5 12.5t-68.5 36t-48.5 58t-18.5 78.5q0 43 17.5 73.5t45.5 50t63.5 29t71.5 9.5q40 0 74.5 -10t64.5 -27v52q0 23 -10 43t-27 34.5t-38 23t-44 8.5q-37 0 -66.5 -26
t-51.5 -60l-89 66q14 23 34.5 43t46.5 36t58 25t68 9zM400 193q-32 26 -67 42.5t-68 16.5q-16 0 -31.5 -4t-27.5 -13t-19.5 -23t-7.5 -34q0 -24 9 -41t24 -28.5t33.5 -16.5t37.5 -5q29 0 57 4t60 13v89z" />
    <glyph glyph-name="b" unicode="b" 
d="M82 762h118v-249q25 20 56 32t70 12q49 0 88.5 -19t67 -55t42 -87t14.5 -115q0 -74 -19 -128.5t-51 -90t-75.5 -52.5t-93.5 -17q-67 0 -118.5 19.5t-98.5 48.5v701zM200 117q22 -14 45 -22t47 -8q27 0 51 10.5t41 34t27 60.5t10 90q0 88 -27 135t-75 47
q-32 0 -62.5 -26.5t-56.5 -65.5v-255z" />
    <glyph glyph-name="c" unicode="c" 
d="M301 557q88 0 147 -47t77 -129l-108 -26q-15 47 -44.5 78t-74.5 31q-54 0 -82 -45.5t-28 -140.5q0 -52 8 -88t23 -59t36 -33.5t46 -10.5q26 0 46.5 11t37 29t29 40t21.5 44l96 -59q-11 -29 -28.5 -57.5t-44.5 -51t-64.5 -36.5t-87.5 -14q-59 0 -103 19.5t-73.5 56.5
t-44 89t-14.5 117t14.5 117.5t43.5 89t72 56t100 19.5z" />
    <glyph glyph-name="d" unicode="d" 
d="M518 762v-702l-1 -1q-47 -29 -98 -47.5t-117 -18.5q-50 0 -93.5 17t-76 52.5t-51 90t-18.5 128.5q0 129 56 202.5t156 73.5q38 0 69 -11t57 -30v246h117zM401 372q-26 39 -56.5 65.5t-62.5 26.5q-48 0 -75 -47t-27 -135q0 -53 10 -90t27.5 -60.5t41.5 -34t51 -10.5
q24 0 46.5 7.5t44.5 20.5v257z" />
    <glyph glyph-name="e" unicode="e" 
d="M301 557q62 0 105 -22t70 -60.5t39 -89.5t12 -109v-41h-336q2 -29 8.5 -55.5t19.5 -47t33 -33t49 -12.5q25 0 45 10t36 25.5t28.5 35.5t21.5 41l96 -59q-26 -66 -82 -106.5t-141 -40.5q-60 0 -103.5 20.5t-72.5 57t-43 88t-14 114.5q0 59 13 110.5t40.5 90t71 61
t104.5 22.5zM405 318q-8 69 -33 107.5t-71 38.5q-30 0 -50 -12.5t-33 -32.5t-19.5 -46.5t-8.5 -54.5h215z" />
    <glyph glyph-name="f" unicode="f" 
d="M358 762q62 0 110 -20t80 -46l-48 -81q-29 22 -66 38.5t-73 16.5q-43 0 -67 -24.5t-24 -72.5v-52h252v-89h-252v-432h-113v432h-86v89h86v64q0 86 55 131.5t146 45.5z" />
    <glyph glyph-name="g" unicode="g" 
d="M81 363q0 39 11 74t36 62t65.5 42.5t98.5 15.5q29 0 53 -4t44 -11q24 20 53.5 38.5t64.5 35.5l67 -86q-27 -11 -52.5 -25t-48.5 -31q16 -24 22.5 -53.5t6.5 -61.5q0 -40 -10.5 -75t-35 -61t-64 -41t-97.5 -15h-19t-17 1q-14 -11 -14 -23q0 -13 17.5 -20.5t60.5 -14.5
q45 -7 82 -18t63 -28t40 -42t14 -60q0 -42 -20.5 -72.5t-52.5 -51t-71.5 -30t-78.5 -9.5q-34 0 -69 7.5t-67.5 22t-60 35.5t-46.5 47l76 78q15 -20 35 -37.5t43.5 -30.5t48.5 -20.5t49 -7.5q18 0 35.5 4t32 11.5t23.5 19.5t9 29q0 31 -37 44.5t-105 25.5q-63 11 -99.5 34
t-36.5 63q0 20 10 38t26 34q-46 26 -65.5 70.5t-19.5 96.5zM199 366q0 -18 3.5 -36.5t14 -34t29 -25.5t48.5 -10t48 9.5t27.5 24.5t12.5 33t3 34q0 17 -3.5 35.5t-13.5 33.5t-28.5 24.5t-48.5 9.5t-48 -9.5t-27.5 -23.5t-13 -31.5t-3.5 -33.5z" />
    <glyph glyph-name="h" unicode="h" 
d="M80 762h115v-248q25 19 57 31t73 12q47 0 82.5 -17t60.5 -47t37.5 -70.5t12.5 -87.5v-335h-114v331q0 60 -22 96.5t-64 36.5q-32 0 -64 -26t-59 -71v-367h-115v762z" />
    <glyph glyph-name="i" unicode="i" 
d="M213 680q0 34 22.5 56t57.5 22q36 0 59 -22t23 -56q0 -33 -23 -55.5t-59 -22.5q-35 0 -57.5 22.5t-22.5 55.5zM114 550h255v-453h124v-97h-388v97h152v358h-143v95z" />
    <glyph glyph-name="j" unicode="j" 
d="M311 680q0 34 22.5 56t57.5 22q36 0 59 -22t23 -56q0 -33 -23 -55.5t-59 -22.5q-35 0 -57.5 22.5t-22.5 55.5zM103 550h378v-527q0 -59 -18 -101.5t-48 -69.5t-69 -39.5t-81 -12.5q-73 0 -127 34t-86 82l82 68q12 -17 27 -33t32 -29t36 -21t38 -8t37 7.5t32.5 23.5
t23 40.5t8.5 58.5v432h-265v95z" />
    <glyph glyph-name="k" unicode="k" 
d="M389 550h126q-23 -39 -44.5 -72.5t-44 -64.5t-47 -61t-54.5 -63q32 -36 58.5 -69t51 -67.5t48.5 -71.5t50 -81h-125q-22 37 -42 68t-40 59.5t-41.5 56t-45.5 56.5h-47v-240h-115v762h115v-426h45q22 25 41 49t37.5 49.5t36.5 54t37 61.5z" />
    <glyph glyph-name="l" unicode="l" 
d="M19 762h273v-579q0 -48 22.5 -72.5t60.5 -24.5q29 0 64 16t64 39l50 -81q-32 -28 -80.5 -47.5t-103.5 -19.5q-41 0 -76 12t-60.5 34.5t-39.5 55.5t-14 75v500h-160v92z" />
    <glyph glyph-name="m" unicode="m" 
d="M59 550h110v-25q14 14 32 23t41 9q29 0 49.5 -12.5t34.5 -34.5q17 20 38.5 33.5t48.5 13.5q39 0 64 -16t39.5 -43.5t19.5 -64.5t5 -79v-354h-110v364q0 47 -6.5 74t-19.5 27q-16 -1 -28.5 -22.5t-20.5 -50.5q1 -10 1.5 -19t0.5 -19v-354h-110v364q0 47 -6.5 74t-20.5 27
q-9 0 -16.5 -8t-14 -21.5t-12 -31t-9.5 -35.5v-369h-110v550z" />
    <glyph glyph-name="n" unicode="n" 
d="M80 550h115v-38q26 19 58 32t72 13q47 0 83 -16.5t60.5 -46t37 -70t12.5 -87.5v-337h-114v331q0 60 -21 96.5t-63 36.5q-32 0 -64.5 -26.5t-60.5 -71.5v-366h-115v550z" />
    <glyph glyph-name="o" unicode="o" 
d="M72 276q0 57 13 108.5t40.5 89.5t70.5 60.5t103 22.5q61 0 104 -22.5t70.5 -61.5t40.5 -91t13 -111q0 -58 -12.5 -108.5t-39.5 -88t-70 -59.5t-103 -22q-62 0 -106 23t-71.5 61.5t-40 90t-12.5 108.5zM189 279q0 -35 5 -69.5t18 -61.5t34.5 -44t55.5 -17q33 0 54 16.5
t33 43t16.5 60t4.5 67.5q0 35 -4.5 69t-17 61t-34 43.5t-55.5 16.5q-33 0 -54.5 -16t-34 -42.5t-17 -59.5t-4.5 -67z" />
    <glyph glyph-name="p" unicode="p" 
d="M80 550h118v-33q26 18 57 29t69 11q49 0 88.5 -19t67 -55t42 -87t14.5 -115q0 -73 -18.5 -127.5t-50 -90t-73 -53t-86.5 -17.5q-32 0 -59.5 7.5t-50.5 19.5v-213h-118v743zM198 145q24 -27 51 -42.5t53 -15.5q23 0 44.5 11t37.5 34t25.5 60.5t9.5 89.5q0 88 -27 135
t-75 47q-32 0 -62.5 -26.5t-56.5 -65.5v-227z" />
    <glyph glyph-name="q" unicode="q" 
d="M519 550v-743h-117v216q-23 -14 -51 -22t-61 -8q-45 0 -86 17.5t-72 53t-49.5 90t-18.5 127.5q0 64 14.5 115t42 87t67.5 55t90 19q38 0 68.5 -10.5t55.5 -28.5v32h117zM402 373q-25 39 -54.5 65t-62.5 26q-49 0 -76.5 -48t-27.5 -135q0 -52 9.5 -89t26 -60t37.5 -34
t43 -11q26 0 53.5 18t51.5 47v221z" />
    <glyph glyph-name="r" unicode="r" 
d="M123 540h185v-70q30 38 66 62.5t71 24.5q36 0 67.5 -12.5t57.5 -28.5l-42 -93q-22 13 -47 24t-43 11q-29 0 -60.5 -26t-69.5 -83v-254h132v-95h-326v95h81v350h-72v95z" />
    <glyph glyph-name="s" unicode="s" 
d="M312 -7q-73 0 -130 37t-92 96l84 68q14 -21 29.5 -40.5t33.5 -34.5t37.5 -24t40.5 -9q29 0 53.5 15.5t24.5 46.5q0 16 -8 28t-23.5 22t-37 19t-48.5 20l-17 7q-36 15 -65.5 29.5t-50 32t-31.5 39.5t-11 51q0 37 16.5 66.5t43.5 50.5t62.5 32.5t73.5 11.5q33 0 65.5 -9
t60.5 -25t50.5 -38t36.5 -49l-84 -65q-27 47 -63 70.5t-68 23.5t-55 -18.5t-23 -46.5q0 -25 22 -37.5t62 -29.5l42 -17q39 -16 70 -32t52.5 -35t32.5 -42.5t11 -54.5q0 -39 -16.5 -68.5t-44 -49.5t-63 -30.5t-73.5 -10.5z" />
    <glyph glyph-name="t" unicode="t" 
d="M352 -7q-87 0 -141.5 47t-54.5 140v281h-86v89h86v138h113v-138h228v-89h-228v-269q0 -54 23 -80t64 -26q32 0 65 16.5t62 37.5l49 -80q-32 -26 -76 -46.5t-104 -20.5z" />
    <glyph glyph-name="u" unicode="u" 
d="M80 550h115v-347q0 -55 27 -85.5t72 -30.5q23 0 50 4t54 12v447h115v-508l1 -2q-52 -19 -113.5 -33t-113.5 -14q-46 0 -84 15.5t-65.5 42.5t-42.5 64t-15 79v356z" />
    <glyph glyph-name="v" unicode="v" 
d="M43 550h121q19 -63 35 -115t32 -100.5t33 -96t38 -101.5q20 53 36.5 102t32.5 98t31.5 101t33.5 112h122q-27 -84 -50 -151.5t-46 -130.5t-48.5 -127t-58.5 -141h-107q-33 77 -59 141t-49.5 127t-46.5 130.5t-50 151.5z" />
    <glyph glyph-name="w" unicode="w" 
d="M35 550h116q6 -57 12.5 -106t13 -94t13.5 -89t16 -90q13 54 24.5 106t22.5 109h103q11 -56 22 -107t24 -103q8 46 14.5 89.5t11.5 88.5t10 93.5t9 102.5h116q-10 -83 -20 -150t-21 -130t-25 -127.5t-32 -142.5h-119q-13 48 -23 90.5t-20 87.5q-10 -45 -20 -87.5
t-22 -90.5h-121q-18 75 -32 141.5t-26 131.5t-23.5 132.5t-23.5 144.5z" />
    <glyph glyph-name="x" unicode="x" 
d="M62 550h127l111 -177l110 177h129l-177 -268l185 -282h-128l-121 189l-118 -189h-127l182 283z" />
    <glyph glyph-name="y" unicode="y" 
d="M164 550q18 -64 34.5 -116.5t32.5 -101t34 -96t39 -101.5q19 51 35 97.5t31 95t30.5 102.5t34.5 120h123q-55 -178 -102.5 -310.5t-91.5 -239.5q-18 -44 -37 -80.5t-42 -63t-52.5 -41.5t-69.5 -15q-33 0 -61.5 10.5t-51.5 24.5l35 87q20 -11 41.5 -20t36.5 -9
q26 0 45.5 25t39.5 73q-36 87 -63 154.5t-50 130.5t-45 128t-49 146h123z" />
    <glyph glyph-name="z" unicode="z" 
d="M99 550h388v-66l-265 -394h296v-90h-438v69l263 391h-244v90z" />
    <glyph glyph-name="braceleft" unicode="{" 
d="M475 769v-92q-66 0 -93.5 -19t-27.5 -54v-163q0 -44 -19 -70t-47 -40q28 -14 47 -40.5t19 -69.5v-163q0 -35 27.5 -54t93.5 -19v-92q-232 0 -232 163v151q0 76 -86 76v96q86 0 86 75v152q0 163 232 163z" />
    <glyph glyph-name="bar" unicode="|" 
d="M242 770h115v-971h-115v971z" />
    <glyph glyph-name="braceright" unicode="}" 
d="M126 769q231 0 231 -163v-152q0 -75 87 -75v-96q-87 0 -87 -76v-151q0 -163 -231 -163v92q66 0 93 19t27 54v163q0 43 19.5 69.5t47.5 40.5q-28 14 -47.5 40t-19.5 70v163q0 35 -27 54t-93 19v92z" />
    <glyph glyph-name="asciitilde" unicode="~" 
d="M61 359q13 21 30 40.5t37 34.5t41.5 24t43.5 9q38 0 65.5 -14.5t50.5 -31.5q18 -13 33.5 -22t26.5 -9q19 0 38 17.5t43 47.5l70 -61q-14 -22 -31.5 -41.5t-36.5 -34.5t-40 -23.5t-42 -8.5q-38 0 -66.5 14.5t-53.5 31.5q-18 13 -33.5 22.5t-26.5 9.5q-18 0 -37.5 -19.5
t-42.5 -46.5z" />
    <glyph glyph-name="Euro" unicode="&#x20ac;" 
d="M39 480h62q7 56 23.5 101.5t44.5 77.5t69 50t97 18q85 0 142.5 -57t76.5 -160l-116 -28q-7 31 -17 58t-22.5 47.5t-29.5 32t-40 11.5q-48 0 -72.5 -41t-34.5 -110h176v-89h-182q-1 -8 -1 -15.5v-15.5v-18t1 -18h155v-89h-148q11 -70 37 -108t74 -38q23 0 41.5 10.5
t33 28.5t25 41.5t17.5 48.5l111 -35q-28 -91 -84.5 -140.5t-143.5 -49.5q-54 0 -94 16.5t-68 47.5t-45.5 76t-25.5 102h-62v89h55v67h-55v89z" />
    <glyph glyph-name="Scaron" unicode="&#x160;" 
d="M131 888h128q8 -15 16 -29t19 -28q11 14 19 28t17 29h128q-17 -22 -31.5 -40t-28 -34.5t-28.5 -33t-33 -34.5h-86q-28 29 -58 64.5t-62 77.5zM290 727q46 0 85 -12.5t70.5 -33t55.5 -46.5t39 -53l-88 -69q-13 22 -29.5 43t-37 37.5t-43.5 27t-50 10.5q-50 0 -80.5 -28.5
t-30.5 -68.5q0 -22 11 -39t29.5 -30t44 -24.5t55.5 -23.5l26 -10q41 -16 77.5 -35t64 -44.5t43.5 -59.5t16 -79q0 -46 -17.5 -82.5t-48 -61.5t-72.5 -38.5t-91 -13.5q-48 0 -88.5 13t-73.5 35t-59 52.5t-45 64.5l88 68q14 -24 32 -48.5t39.5 -44t47.5 -32t56 -12.5
q48 0 78.5 27.5t30.5 72.5q0 27 -11.5 46t-32 33.5t-48.5 26.5t-60 24l-36 14q-82 32 -130 75.5t-48 116.5q0 44 17 81t47.5 64t73 42t93.5 15z" />
    <glyph glyph-name="OE" unicode="&#x152;" 
d="M580 720v-96h-188v-208h170v-96h-170v-220h186v-100h-298q-67 0 -116 25.5t-81 73t-47 115t-15 150.5t15 149t47 112t81 70.5t116 24.5h300zM273 624q-73 -3 -102 -71.5t-29 -192.5q0 -59 6.5 -106.5t21.5 -81t40.5 -52t62.5 -20.5v524z" />
    <glyph glyph-name="scaron" unicode="&#x161;" 
d="M132 714h127q8 -15 16 -29t19 -28q19 27 35 57h127q-17 -22 -31 -40t-27.5 -34.5t-28 -32.5t-32.5 -35h-86q-28 29 -57.5 64.5t-61.5 77.5zM312 -7q-73 0 -130 37t-92 96l84 68q14 -21 29.5 -40.5t33.5 -34.5t37.5 -24t40.5 -9q29 0 53.5 15.5t24.5 46.5q0 16 -8 28
t-23.5 22t-37 19t-48.5 20l-17 7q-36 15 -65.5 29.5t-50 32t-31.5 39.5t-11 51q0 37 16.5 66.5t43.5 50.5t62.5 32.5t73.5 11.5q33 0 65.5 -9t60.5 -25t50.5 -38t36.5 -49l-84 -65q-27 47 -63 70.5t-68 23.5t-55 -18.5t-23 -46.5q0 -25 22 -37.5t62 -29.5l42 -17
q39 -16 70 -32t52.5 -35t32.5 -42.5t11 -54.5q0 -39 -16.5 -68.5t-44 -49.5t-63 -30.5t-73.5 -10.5z" />
    <glyph glyph-name="oe" unicode="&#x153;" 
d="M25 276q0 71 13 124t35.5 88t53.5 52t67 17q37 0 63.5 -17t43.5 -40q19 23 46 40t59 17q47 0 78.5 -22t51 -59t28 -86.5t8.5 -103.5v-51h-224q1 -24 4.5 -50t11 -48t19.5 -36t30 -14q23 0 36.5 24.5t24.5 62.5l99 -31q-20 -72 -59 -111t-102 -39q-36 0 -63 16t-47 39
q-19 -23 -45 -39t-63 -16q-36 0 -67 17t-53.5 52.5t-35.5 88.5t-13 125zM457 318q-5 70 -17 108t-33 38q-18 0 -29.5 -15t-18 -37t-9 -47.5t-3.5 -46.5h110zM140 279q0 -35 2.5 -69.5t8.5 -61.5t16.5 -44t26.5 -17q18 0 28.5 16.5t15.5 43t6 60t1 67.5q0 35 -2 69t-7.5 61
t-15.5 43.5t-26 16.5t-26.5 -16t-16.5 -42.5t-8.5 -59.5t-2.5 -67z" />
    <glyph glyph-name="Ydieresis" unicode="&#x178;" 
d="M134 816q0 28 17 44t48 16q29 0 48 -16t19 -44t-19 -43.5t-48 -15.5q-31 0 -48 15.5t-17 43.5zM330 816q0 28 17 44t48 16q29 0 47.5 -16t18.5 -44t-18.5 -43.5t-47.5 -15.5q-31 0 -48 15.5t-17 43.5zM163 720q18 -46 34.5 -85t32.5 -75t33.5 -72t38.5 -77q20 40 37 76
t33 72.5t31.5 75.5t33.5 85h132q-26 -60 -49 -111.5t-47 -101.5t-51.5 -102t-62.5 -112v-293h-119v292q-34 61 -61 113.5t-51.5 102.5t-48 101.5t-49.5 110.5h133z" />
    <glyph glyph-name="exclamdown" unicode="&#xa1;" 
d="M228 465q0 30 20 48.5t52 18.5t52 -18.5t20 -48.5t-20 -49t-52 -19t-52 19t-20 49zM248 317h106l12 -512h-133z" />
    <glyph glyph-name="cent" unicode="&#xa2;" 
d="M265 720h103v-83q68 -14 113 -59.5t60 -114.5l-109 -23q-15 45 -44.5 75.5t-75.5 30.5q-55 0 -83 -45t-28 -140q0 -103 31.5 -147t82.5 -44q26 0 47.5 11t38 28.5t29 39.5t21.5 43l95 -56q-9 -25 -23 -50.5t-36 -46.5t-51 -37t-68 -22v-84h-103v85q-91 17 -136.5 90.5
t-45.5 186.5q0 115 45.5 189t136.5 91v82z" />
    <glyph glyph-name="sterling" unicode="&#xa3;" 
d="M436 562q-26 30 -52.5 49.5t-58.5 19.5q-42 0 -64.5 -28t-22.5 -75q0 -30 3 -61.5t8 -62.5h185v-92h-174q3 -25 3 -53q0 -51 -16 -91.5t-34 -68.5h306v-99h-443v80q31 39 53 80.5t22 101.5q0 25 -3 50h-72v92h59q-5 30 -9 61.5t-4 57.5q0 46 13 83.5t39 64.5t64.5 41.5
t89.5 14.5q72 0 118 -29t77 -70z" />
    <glyph glyph-name="currency" unicode="&#xa4;" 
d="M300 525q49 0 90 -22l67 67l78 -76l-68 -66q8 -18 13 -38.5t5 -44.5q0 -48 -25 -93l65 -65l-78 -76l-70 71q-36 -16 -77 -16q-42 0 -77 15l-69 -70l-79 76l64 63q-11 22 -17.5 45t-6.5 50q0 46 17 83l-66 66l78 76l67 -68q41 23 89 23zM300 253q34 0 56.5 22t22.5 70
t-22.5 70.5t-56.5 22.5t-57 -22.5t-23 -70.5t23 -70t57 -22z" />
    <glyph glyph-name="yen" unicode="&#xa5;" 
d="M84 354h129q-27 46 -50.5 89.5t-45.5 88t-43 91t-44 97.5h133q18 -46 34.5 -85t32.5 -75t33.5 -72t38.5 -77q20 40 37 76t33 72.5t31.5 75.5t33.5 85h132q-22 -52 -43.5 -98.5t-43.5 -91t-45.5 -88t-50.5 -88.5h132v-89h-159v-53h159v-88h-159v-124h-119v124h-156v88h156
v53h-156v89z" />
    <glyph glyph-name="brokenbar" unicode="&#xa6;" 
d="M242 770h115v-430h-115v430zM242 215h115v-416h-115v416z" />
    <glyph glyph-name="section" unicode="&#xa7;" 
d="M297 759q34 0 66.5 -9t60.5 -25.5t51 -38.5t37 -49l-84 -66q-28 48 -64 71.5t-69 23.5q-32 0 -55.5 -18.5t-23.5 -46.5q0 -19 17 -32.5t56 -30.5l55 -23q39 -16 70 -32.5t52.5 -35t33 -42t11.5 -55.5q0 -35 -18.5 -61t-44.5 -46q31 -21 47 -47.5t16 -64.5
q0 -39 -16.5 -69t-44.5 -50t-63.5 -30.5t-73.5 -10.5q-74 0 -131.5 37t-92.5 97l84 68q14 -21 30 -41t34 -35t38 -24t41 -9q15 0 29 4t25 12t17.5 20t6.5 27q0 23 -23 42t-78 41l-34 13q-37 15 -66.5 30t-50.5 33t-32 40t-11 52q0 35 18.5 62.5t47.5 48.5q-32 20 -49 45.5
t-17 62.5t16.5 67t44 51t63.5 32.5t74 11.5zM261 442q-20 -10 -32.5 -24.5t-12.5 -32.5t17 -34.5t55 -31.5l56 -23q4 -1 12 -5q15 11 26.5 25.5t11.5 31.5q0 23 -23 41.5t-78 40.5z" />
    <glyph glyph-name="dieresis" unicode="&#xa8;" 
d="M136 642q0 28 17 44t48 16q29 0 48 -16t19 -44t-19 -43.5t-48 -15.5q-31 0 -48 15.5t-17 43.5zM332 642q0 28 17 44t48 16q29 0 47.5 -16t18.5 -44t-18.5 -43.5t-47.5 -15.5q-31 0 -48 15.5t-17 43.5z" />
    <glyph glyph-name="copyright" unicode="&#xa9;" 
d="M53 365q0 75 12.5 141t41 115t76 77.5t116.5 28.5q70 0 117.5 -28.5t76.5 -77.5t41.5 -115t12.5 -141q0 -76 -12.5 -143.5t-41.5 -118.5t-76.5 -80.5t-117.5 -29.5q-69 0 -116.5 30t-76 81t-41 118.5t-12.5 142.5zM140 364q0 -78 11 -133.5t31.5 -90t50 -50.5t66.5 -16
t66.5 15.5t50.5 50t32 89.5t11 134q0 80 -11 134.5t-32 87.5t-50.5 47.5t-66.5 14.5q-36 0 -65.5 -14.5t-50.5 -47.5t-32 -87t-11 -134zM302 600q32 0 55 -12.5t38.5 -33.5t24.5 -49.5t13 -61.5l-94 -12q-5 38 -14.5 60.5t-26.5 22.5q-26 0 -33 -39.5t-7 -114.5
q0 -79 8 -116.5t34 -37.5q19 0 31 22t21 54l86 -26q-7 -29 -17.5 -53.5t-26 -42.5t-38 -28.5t-54.5 -10.5q-44 0 -71.5 18.5t-43 51t-21 76.5t-5.5 94q0 47 4.5 90.5t19.5 76.5t43 52.5t74 19.5z" />
    <glyph glyph-name="ordfeminine" unicode="&#xaa;" 
d="M284 721q32 0 60.5 -9t50 -26.5t34.5 -43.5t13 -61v-197q-40 -15 -78.5 -26t-76.5 -11q-33 0 -59.5 9.5t-45.5 27t-29.5 40.5t-10.5 50t11.5 47.5t30 34t43 20t50.5 6.5q18 0 36 -4t35 -10v19q0 32 -20 45.5t-43 13.5q-18 0 -35.5 -13.5t-32.5 -32.5l-70 47q23 34 59 54
t78 20zM348 487q-18 11 -36 17t-32 6q-19 0 -31.5 -9t-12.5 -28q0 -23 13 -38.5t41 -15.5q14 0 29 2.5t29 7.5v58z" />
    <glyph glyph-name="guillemotleft" unicode="&#xab;" 
d="M380 475h120q-22 -24 -41.5 -46.5t-38.5 -46t-39 -48.5t-42 -55q22 -30 42 -55.5t39.5 -49.5t39 -47t40.5 -47h-120q-21 26 -40 49t-37.5 46t-36.5 48t-38 54q20 29 38 54t36 48.5t37.5 47t40.5 48.5zM207 475h120q-22 -24 -41.5 -46.5t-38.5 -46t-39 -48.5t-42 -55
q22 -30 41.5 -55.5t39 -49.5t39.5 -47t41 -47h-120q-21 26 -40 49t-37.5 46t-36.5 48t-38 54q20 29 38 54t36 48.5t37.5 47t40.5 48.5z" />
    <glyph glyph-name="logicalnot" unicode="&#xac;" 
d="M104 482h391v-244h-116v148h-275v96z" />
    <glyph glyph-name="registered" unicode="&#xae;" 
d="M53 365q0 75 12.5 141t41 115t76 77.5t116.5 28.5q70 0 117.5 -28.5t76.5 -77.5t41.5 -115t12.5 -141q0 -76 -12.5 -143.5t-41.5 -118.5t-76.5 -80.5t-117.5 -29.5q-69 0 -116.5 30t-76 81t-41 118.5t-12.5 142.5zM367 339q18 -37 33.5 -76t32.5 -88q13 35 19.5 81
t6.5 107q0 80 -11 134.5t-32 87.5t-50.5 47.5t-66.5 14.5q-34 0 -62 -12.5t-48 -40.5h118q34 0 58.5 -11.5t40 -30.5t23 -43.5t7.5 -50.5q0 -43 -19 -73.5t-50 -45.5zM140 364q0 -76 10 -130t30 -89v435q-19 -34 -29.5 -86.5t-10.5 -129.5zM268 398h34q25 0 35.5 18.5
t10.5 41.5q0 25 -10.5 43t-33.5 18h-36v-121zM186 136q20 -32 49 -47t64 -15q36 0 65 14.5t50 47.5h-60q-16 57 -32 100.5t-36 88.5h-18v-189h-82z" />
    <glyph glyph-name="degree" unicode="&#xb0;" 
d="M160 595q0 60 37 95.5t103 35.5q65 0 103 -35.5t38 -95.5t-38 -95.5t-103 -35.5q-66 0 -103 35.5t-37 95.5zM262 594q0 -20 9.5 -33t28.5 -13t29 13.5t10 33.5q0 21 -10 34t-30 13q-19 0 -28 -13.5t-9 -34.5z" />
    <glyph glyph-name="plusminus" unicode="&#xb1;" 
d="M60 416h181v191h118v-191h181v-98h-181v-182h-118v182h-181v98zM60 98h480v-98h-480v98z" />
    <glyph glyph-name="acute" unicode="&#xb4;" 
d="M314 773l109 -62q-32 -38 -76 -67.5t-89 -47.5l-49 50q25 20 55 55.5t50 71.5z" />
    <glyph glyph-name="acute" unicode="&#x2ca;" 
d="M314 773l109 -62q-32 -38 -76 -67.5t-89 -47.5l-49 50q25 20 55 55.5t50 71.5z" />
    <glyph glyph-name="uni00B5" unicode="&#xb5;" 
d="M80 550h118v-347q0 -57 27 -86.5t72 -29.5q23 0 50 4.5t54 12.5v446h115v-510q-57 -20 -114 -33.5t-112 -13.5q-25 0 -48.5 6.5t-43.5 17.5v-210h-118v743z" />
    <glyph glyph-name="paragraph" unicode="&#xb6;" 
d="M509 769v-847h-118v847h118zM358 769v-847h-119v435q-94 5 -144 59.5t-50 145.5q0 100 53.5 153.5t156.5 53.5h103z" />
    <glyph glyph-name="periodcentered" unicode="&#xb7;" 
d="M224 347q0 34 20.5 51.5t55.5 17.5t55.5 -17.5t20.5 -51.5q0 -33 -20.5 -51.5t-55.5 -18.5t-55.5 18.5t-20.5 51.5z" />
    <glyph glyph-name="periodcentered" unicode="&#x2219;" 
d="M224 347q0 34 20.5 51.5t55.5 17.5t55.5 -17.5t20.5 -51.5q0 -33 -20.5 -51.5t-55.5 -18.5t-55.5 18.5t-20.5 51.5z" />
    <glyph glyph-name="cedilla" unicode="&#xb8;" 
d="M252 40h101l-12 -54q78 -20 78 -83q0 -26 -11 -45.5t-29 -32.5t-42 -19.5t-50 -6.5q-31 0 -57.5 6.5t-47.5 13.5l22 71q18 -6 42.5 -12t38.5 -6q31 0 31 30q0 11 -8 18.5t-21 7.5h-59z" />
    <glyph glyph-name="ordmasculine" unicode="&#xba;" 
d="M143 535q0 94 42.5 140t114.5 46t115 -46t43 -140t-43 -141t-115 -47t-114.5 47t-42.5 141zM245 535q0 -110 55 -110q56 0 56 110q0 108 -56 108q-29 0 -42 -26.5t-13 -81.5z" />
    <glyph glyph-name="guillemotright" unicode="&#xbb;" 
d="M100 475h121q21 -25 40 -48.5t37 -47t36.5 -48.5t37.5 -54q-20 -29 -38 -54t-36 -48t-37 -46t-40 -49h-121q22 24 41.5 47t39 47t39 49.5t41.5 55.5q-22 30 -41.5 55t-39 48.5t-39 46t-41.5 46.5zM273 475h121q21 -25 40 -48.5t37 -47t36.5 -48.5t37.5 -54
q-20 -29 -38 -54t-36 -48t-37 -46t-40 -49h-121q22 24 41.5 47t39 47t39 49.5t41.5 55.5q-22 30 -41.5 55t-39 48.5t-39 46t-41.5 46.5z" />
    <glyph glyph-name="onequarter" unicode="&#xbc;" 
d="M162 704l122 65h73v-324h74v-75h-248v75h78v219l-58 -30zM77 339h446v-75h-446v75zM317 234h77v-249h53v-72h-53v-78h-93v78h-166v53zM240 -15h61v89z" />
    <glyph glyph-name="onehalf" unicode="&#xbd;" 
d="M162 704l122 65h73v-324h74v-75h-248v75h78v219l-58 -30zM77 339h446v-75h-446v75zM174 155q12 15 26 29t31 25t37 18t44 7q30 0 53.5 -10.5t40 -27t25 -37.5t8.5 -43q0 -20 -5 -37t-14 -32.5t-21 -30.5t-25 -31l-63 -75h135v-75h-259v57l108 129q20 23 33.5 45.5
t13.5 48.5q0 20 -8 32t-24 12q-17 0 -36.5 -17.5t-38.5 -39.5z" />
    <glyph glyph-name="threequarters" unicode="&#xbe;" 
d="M167 699q25 33 58 53t71 20q27 0 50.5 -8.5t41 -24t27.5 -36.5t10 -47q0 -24 -14 -45t-39 -37q29 -14 46.5 -37t17.5 -52t-12 -51.5t-31.5 -37.5t-44 -22.5t-50.5 -7.5q-43 0 -80 21.5t-63 53.5l62 53q18 -20 39 -36.5t41 -16.5q17 0 30.5 12t13.5 33q0 26 -17.5 38
t-34.5 12h-52v66h49q16 0 30.5 13t14.5 36q0 20 -10.5 32.5t-27.5 12.5t-34 -15.5t-30 -31.5zM77 339h446v-75h-446v75zM317 234h77v-249h53v-72h-53v-78h-93v78h-166v53zM240 -15h61v89z" />
    <glyph glyph-name="questiondown" unicode="&#xbf;" 
d="M238 465q0 30 20.5 48.5t52.5 18.5t52 -18.5t20 -48.5t-20 -49t-52 -19t-52.5 19t-20.5 49zM261 317h109v-42q0 -55 -27 -94t-65 -77q-26 -26 -45.5 -51.5t-19.5 -63.5q0 -40 23.5 -67t64.5 -27q22 0 40 9t34 24t30.5 34t28.5 39l84 -68q-36 -58 -88 -96t-129 -38
q-47 0 -85 14.5t-64.5 39.5t-41 58.5t-14.5 71.5q0 29 8 52t21 43.5t29.5 38t33.5 34.5q21 21 35 38t22.5 31.5t12 28t3.5 28.5v40z" />
    <glyph glyph-name="Agrave" unicode="&#xc0;" 
d="M288 909q9 -18 22 -36t27 -35t29 -31.5t27 -24.5l-49 -50q-45 18 -89.5 47.5t-76.5 67.5zM366 720q33 -102 60.5 -188.5t52.5 -170.5t48.5 -171t48.5 -190h-122q-13 59 -25.5 109.5t-24.5 97.5h-209q-12 -48 -24 -98.5t-26 -108.5h-121q26 104 48.5 190t46.5 169t52 170
t63 191h132zM379 305q-18 63 -37 126t-42 135q-23 -72 -42 -135t-36 -126h157z" />
    <glyph glyph-name="Aacute" unicode="&#xc1;" 
d="M313 909l109 -62q-32 -38 -76 -67.5t-89 -47.5l-49 50q25 20 55 55.5t50 71.5zM366 720q33 -102 60.5 -188.5t52.5 -170.5t48.5 -171t48.5 -190h-122q-13 59 -25.5 109.5t-24.5 97.5h-209q-12 -48 -24 -98.5t-26 -108.5h-121q26 104 48.5 190t46.5 169t52 170t63 191h132
zM379 305q-18 63 -37 126t-42 135q-23 -72 -42 -135t-36 -126h157z" />
    <glyph glyph-name="Acircumflex" unicode="&#xc2;" 
d="M256 888h86q30 -30 61.5 -68t59.5 -74h-128q-9 14 -17.5 27.5t-18.5 27.5q-10 -14 -18.5 -27.5t-16.5 -27.5h-128q28 36 59.5 74.5t60.5 67.5zM366 720q33 -102 60.5 -188.5t52.5 -170.5t48.5 -171t48.5 -190h-122q-13 59 -25.5 109.5t-24.5 97.5h-209q-12 -48 -24 -98.5
t-26 -108.5h-121q26 104 48.5 190t46.5 169t52 170t63 191h132zM379 305q-18 63 -37 126t-42 135q-23 -72 -42 -135t-36 -126h157z" />
    <glyph glyph-name="Atilde" unicode="&#xc3;" 
d="M464 822q-9 -13 -20 -26t-24.5 -23t-30 -16.5t-34.5 -6.5q-23 0 -39.5 7t-32.5 18q-11 7 -19.5 11.5t-15.5 4.5q-9 0 -21.5 -12t-26.5 -29l-65 53q18 27 46.5 50.5t66.5 23.5q22 0 39 -7.5t31 -16.5q11 -7 20.5 -12.5t17.5 -5.5t20 12.5t25 29.5zM366 720
q33 -102 60.5 -188.5t52.5 -170.5t48.5 -171t48.5 -190h-122q-13 59 -25.5 109.5t-24.5 97.5h-209q-12 -48 -24 -98.5t-26 -108.5h-121q26 104 48.5 190t46.5 169t52 170t63 191h132zM379 305q-18 63 -37 126t-42 135q-23 -72 -42 -135t-36 -126h157z" />
    <glyph glyph-name="Adieresis" unicode="&#xc4;" 
d="M133 816q0 28 17.5 44t47.5 16q29 0 48 -16t19 -44t-19 -43.5t-48 -15.5q-30 0 -47.5 15.5t-17.5 43.5zM329 816q0 28 17 44t48 16q29 0 47.5 -16t18.5 -44t-18.5 -43.5t-47.5 -15.5q-31 0 -48 15.5t-17 43.5zM366 720q33 -102 60.5 -188.5t52.5 -170.5t48.5 -171
t48.5 -190h-122q-13 59 -25.5 109.5t-24.5 97.5h-209q-12 -48 -24 -98.5t-26 -108.5h-121q26 104 48.5 190t46.5 169t52 170t63 191h132zM379 305q-18 63 -37 126t-42 135q-23 -72 -42 -135t-36 -126h157z" />
    <glyph glyph-name="Aring" unicode="&#xc5;" 
d="M182 797q0 51 33.5 78.5t84.5 27.5t85.5 -27.5t34.5 -78.5q0 -32 -13 -55.5t-36 -37.5q32 -98 59 -182.5t51 -167t47 -168t48 -186.5h-122q-13 59 -25.5 109.5t-24.5 97.5h-209q-12 -48 -24 -98.5t-26 -108.5h-121q25 102 47.5 187t46 166.5t50.5 166t61 185.5
q-22 14 -34.5 37t-12.5 55zM275 796q0 -17 7 -26t18 -9t19 9.5t8 26.5q0 16 -8.5 23t-19.5 7t-17.5 -7t-6.5 -24zM379 305q-18 63 -37 126t-42 135q-23 -72 -42 -135t-36 -126h157z" />
    <glyph glyph-name="AE" unicode="&#xc6;" 
d="M10 0q26 104 48.5 190t46.5 169t52 170t63 191h370v-96h-188v-208h170v-96h-170v-220h186v-100h-305v207h-102q-12 -47 -24 -98t-26 -109h-121zM283 305v262q-23 -72 -41.5 -135t-35.5 -127h77z" />
    <glyph glyph-name="Ccedilla" unicode="&#xc7;" 
d="M319 727q45 0 84 -14.5t69.5 -42t51.5 -68t30 -92.5l-116 -28q-7 32 -17.5 59t-25.5 47t-35.5 31.5t-46.5 11.5q-37 0 -62 -20t-40 -56t-21 -86t-6 -109q0 -63 7 -113.5t22.5 -85.5t40.5 -53.5t61 -18.5q29 0 51.5 12t40.5 32.5t31.5 46t22.5 52.5l103 -56
q-50 -153 -194 -179l-3 -11q78 -20 78 -83q0 -26 -11 -45.5t-29 -32.5t-42 -19.5t-50 -6.5q-31 0 -57.5 6.5t-47.5 13.5l22 71q18 -6 42.5 -12t38.5 -6q31 0 31 30q0 11 -8 18.5t-21 7.5h-58l14 69q-57 8 -96.5 37t-64 75.5t-35.5 110t-11 141.5q0 79 12 146t41.5 116
t79 76.5t124.5 27.5z" />
    <glyph glyph-name="Egrave" unicode="&#xc8;" 
d="M279 909q9 -18 22 -36t27.5 -35t29 -31.5t26.5 -24.5l-49 -50q-45 18 -89.5 47.5t-76.5 67.5zM70 720h438v-97h-319v-207h277v-97h-277v-222h321v-97h-440v720z" />
    <glyph glyph-name="Eacute" unicode="&#xc9;" 
d="M306 909l110 -62q-32 -38 -76.5 -67.5t-89.5 -47.5l-49 50q25 20 55 55.5t50 71.5zM70 720h438v-97h-319v-207h277v-97h-277v-222h321v-97h-440v720z" />
    <glyph glyph-name="Ecircumflex" unicode="&#xca;" 
d="M243 888h86q30 -30 61 -68t59 -74h-128q-9 14 -17.5 27.5t-18.5 27.5q-10 -14 -18.5 -27.5t-16.5 -27.5h-128q28 36 60 74.5t61 67.5zM70 720h438v-97h-319v-207h277v-97h-277v-222h321v-97h-440v720z" />
    <glyph glyph-name="Edieresis" unicode="&#xcb;" 
d="M129 816q0 28 17 44t47 16q29 0 48 -16t19 -44t-19 -43.5t-48 -15.5q-30 0 -47 15.5t-17 43.5zM324 816q0 28 17 44t48 16q29 0 47.5 -16t18.5 -44t-18.5 -43.5t-47.5 -15.5q-31 0 -48 15.5t-17 43.5zM70 720h438v-97h-319v-207h277v-97h-277v-222h321v-97h-440v720z" />
    <glyph glyph-name="Igrave" unicode="&#xcc;" 
d="M287 909q9 -18 22 -36t27 -35t29 -31.5t27 -24.5l-49 -50q-45 18 -89.5 47.5t-76.5 67.5zM99 720h401v-99h-141v-522h144v-99h-407v99h145v522h-142v99z" />
    <glyph glyph-name="Iacute" unicode="&#xcd;" 
d="M314 909l109 -62q-32 -38 -76 -67.5t-89 -47.5l-49 50q25 20 55 55.5t50 71.5zM99 720h401v-99h-141v-522h144v-99h-407v99h145v522h-142v99z" />
    <glyph glyph-name="Icircumflex" unicode="&#xce;" 
d="M254 888h85q30 -30 61.5 -68t59.5 -74h-128q-9 14 -17.5 27.5t-18.5 27.5q-10 -14 -18.5 -27.5t-16.5 -27.5h-128q28 36 60 74.5t61 67.5zM99 720h401v-99h-141v-522h144v-99h-407v99h145v522h-142v99z" />
    <glyph glyph-name="Idieresis" unicode="&#xcf;" 
d="M137 816q0 28 17 44t48 16q29 0 48 -16t19 -44t-19 -43.5t-48 -15.5q-31 0 -48 15.5t-17 43.5zM333 816q0 28 17 44t47 16t48.5 -16t18.5 -44t-18.5 -43.5t-48.5 -15.5t-47 15.5t-17 43.5zM99 720h401v-99h-141v-522h144v-99h-407v99h145v522h-142v99z" />
    <glyph glyph-name="Eth" unicode="&#xd0;" 
d="M14 407h47v313h222q69 0 119 -24.5t82 -70.5t47.5 -112.5t15.5 -149.5t-15.5 -150t-47.5 -114.5t-82 -73t-119 -25.5h-222v311h-47v96zM180 100h103q41 0 68.5 18t44 51.5t23 81.5t6.5 108q0 128 -31 196.5t-111 68.5h-103v-217h133v-96h-133v-211z" />
    <glyph glyph-name="Ntilde" unicode="&#xd1;" 
d="M464 822q-9 -13 -20 -26t-24.5 -23t-30 -16.5t-34.5 -6.5q-23 0 -39.5 7t-32.5 18q-11 7 -19.5 11.5t-15.5 4.5q-9 0 -21.5 -12t-26.5 -29l-65 53q18 27 46.5 50.5t66.5 23.5q22 0 39 -7.5t31 -16.5q11 -7 20.5 -12.5t17.5 -5.5t20 12.5t25 29.5zM61 720h117l250 -496
v496h110v-720h-117l-249 493v-493h-111v720z" />
    <glyph glyph-name="Ograve" unicode="&#xd2;" 
d="M287 909q9 -18 22 -36t27 -35t29 -31.5t27 -24.5l-49 -50q-45 18 -89.5 47.5t-76.5 67.5zM53 365q0 75 11 141t39 115t76 77.5t121 28.5q74 0 122 -28.5t75.5 -77.5t38.5 -115t11 -141q0 -76 -11 -144t-39 -118.5t-76 -80t-121 -29.5t-121 30t-76 81t-39 118.5t-11 142.5
zM175 364q0 -65 6.5 -116t21 -86.5t38.5 -54t59 -18.5t59 18.5t38.5 53.5t21 86t6.5 116q0 132 -27.5 200t-97.5 68t-97.5 -68t-27.5 -199z" />
    <glyph glyph-name="Oacute" unicode="&#xd3;" 
d="M314 909l109 -62q-32 -38 -76 -67.5t-89 -47.5l-49 50q25 20 55 55.5t50 71.5zM53 365q0 75 11 141t39 115t76 77.5t121 28.5q74 0 122 -28.5t75.5 -77.5t38.5 -115t11 -141q0 -76 -11 -144t-39 -118.5t-76 -80t-121 -29.5t-121 30t-76 81t-39 118.5t-11 142.5zM175 364
q0 -65 6.5 -116t21 -86.5t38.5 -54t59 -18.5t59 18.5t38.5 53.5t21 86t6.5 116q0 132 -27.5 200t-97.5 68t-97.5 -68t-27.5 -199z" />
    <glyph glyph-name="Ocircumflex" unicode="&#xd4;" 
d="M258 888h86q30 -30 61.5 -68t59.5 -74h-128q-9 14 -17.5 27.5t-19.5 27.5q-16 -25 -34 -55h-128q28 36 59.5 74.5t60.5 67.5zM53 365q0 75 11 141t39 115t76 77.5t121 28.5q74 0 122 -28.5t75.5 -77.5t38.5 -115t11 -141q0 -76 -11 -144t-39 -118.5t-76 -80t-121 -29.5
t-121 30t-76 81t-39 118.5t-11 142.5zM175 364q0 -65 6.5 -116t21 -86.5t38.5 -54t59 -18.5t59 18.5t38.5 53.5t21 86t6.5 116q0 132 -27.5 200t-97.5 68t-97.5 -68t-27.5 -199z" />
    <glyph glyph-name="Otilde" unicode="&#xd5;" 
d="M462 822q-9 -13 -20 -26t-24.5 -23t-30 -16.5t-34.5 -6.5q-23 0 -39.5 7t-32.5 18q-11 7 -19.5 11.5t-15.5 4.5q-9 0 -21.5 -12t-26.5 -29l-65 53q18 27 46.5 50.5t66.5 23.5q22 0 39 -7.5t31 -16.5q11 -7 20.5 -12.5t17.5 -5.5t20 12.5t25 29.5zM53 365q0 75 11 141
t39 115t76 77.5t121 28.5q74 0 122 -28.5t75.5 -77.5t38.5 -115t11 -141q0 -76 -11 -144t-39 -118.5t-76 -80t-121 -29.5t-121 30t-76 81t-39 118.5t-11 142.5zM175 364q0 -65 6.5 -116t21 -86.5t38.5 -54t59 -18.5t59 18.5t38.5 53.5t21 86t6.5 116q0 132 -27.5 200
t-97.5 68t-97.5 -68t-27.5 -199z" />
    <glyph glyph-name="Odieresis" unicode="&#xd6;" 
d="M140 816q0 28 17 44t48 16q29 0 48 -16t19 -44t-19 -43.5t-48 -15.5q-31 0 -48 15.5t-17 43.5zM336 816q0 28 17 44t47 16q29 0 48 -16t19 -44t-19 -43.5t-48 -15.5q-30 0 -47 15.5t-17 43.5zM53 365q0 75 11 141t39 115t76 77.5t121 28.5q74 0 122 -28.5t75.5 -77.5
t38.5 -115t11 -141q0 -76 -11 -144t-39 -118.5t-76 -80t-121 -29.5t-121 30t-76 81t-39 118.5t-11 142.5zM175 364q0 -65 6.5 -116t21 -86.5t38.5 -54t59 -18.5t59 18.5t38.5 53.5t21 86t6.5 116q0 132 -27.5 200t-97.5 68t-97.5 -68t-27.5 -199z" />
    <glyph glyph-name="multiply" unicode="&#xd7;" 
d="M154 593l145 -155l147 155l76 -74l-152 -158l153 -156l-73 -75l-151 157l-149 -157l-73 74l152 156l-153 160z" />
    <glyph glyph-name="Oslash" unicode="&#xd8;" 
d="M467 740h115l-78 -132q24 -48 33.5 -110t9.5 -133q0 -76 -11 -144t-39 -118.5t-76 -80t-121 -29.5q-42 0 -76 10.5t-60 29.5l-30 -53h-115l79 134q-26 51 -35.5 115t-9.5 136q0 75 11 141t39 115t76 77.5t121 28.5q43 0 77 -10t60 -28zM175 364q0 -31 1 -58t4 -52
l200 339q-29 38 -80 38q-70 0 -97.5 -68t-27.5 -199zM221 128q30 -39 79 -39q35 0 59 18.5t38.5 53.5t21 86t6.5 116q0 29 -1.5 54.5t-3.5 48.5z" />
    <glyph glyph-name="Ugrave" unicode="&#xd9;" 
d="M283 909q9 -18 22 -36t27.5 -35t29 -31.5t26.5 -24.5l-49 -50q-45 18 -89.5 47.5t-76.5 67.5zM61 720h119v-451q0 -39 6.5 -72t20.5 -57t37 -37.5t57 -13.5t56.5 13.5t36 37.5t19.5 57t6 72v451h119v-471q0 -52 -13.5 -98.5t-42 -81.5t-73.5 -55.5t-108 -20.5
t-108.5 20.5t-75 55.5t-43 81.5t-13.5 98.5v471z" />
    <glyph glyph-name="Uacute" unicode="&#xda;" 
d="M318 909l109 -62q-32 -38 -76 -67.5t-89 -47.5l-49 50q24 20 54.5 55.5t50.5 71.5zM61 720h119v-451q0 -39 6.5 -72t20.5 -57t37 -37.5t57 -13.5t56.5 13.5t36 37.5t19.5 57t6 72v451h119v-471q0 -52 -13.5 -98.5t-42 -81.5t-73.5 -55.5t-108 -20.5t-108.5 20.5t-75 55.5
t-43 81.5t-13.5 98.5v471z" />
    <glyph glyph-name="Ucircumflex" unicode="&#xdb;" 
d="M253 888h85q30 -30 61.5 -68t59.5 -74h-128q-9 14 -17.5 27.5t-18.5 27.5q-10 -14 -18.5 -27.5t-16.5 -27.5h-128q28 36 60 74.5t61 67.5zM61 720h119v-451q0 -39 6.5 -72t20.5 -57t37 -37.5t57 -13.5t56.5 13.5t36 37.5t19.5 57t6 72v451h119v-471q0 -52 -13.5 -98.5
t-42 -81.5t-73.5 -55.5t-108 -20.5t-108.5 20.5t-75 55.5t-43 81.5t-13.5 98.5v471z" />
    <glyph glyph-name="Udieresis" unicode="&#xdc;" 
d="M133 816q0 28 17.5 44t47.5 16q29 0 48 -16t19 -44t-19 -43.5t-48 -15.5q-30 0 -47.5 15.5t-17.5 43.5zM329 816q0 28 17 44t48 16q29 0 47.5 -16t18.5 -44t-18.5 -43.5t-47.5 -15.5q-31 0 -48 15.5t-17 43.5zM61 720h119v-451q0 -39 6.5 -72t20.5 -57t37 -37.5t57 -13.5
t56.5 13.5t36 37.5t19.5 57t6 72v451h119v-471q0 -52 -13.5 -98.5t-42 -81.5t-73.5 -55.5t-108 -20.5t-108.5 20.5t-75 55.5t-43 81.5t-13.5 98.5v471z" />
    <glyph glyph-name="Yacute" unicode="&#xdd;" 
d="M309 909l109 -62q-32 -38 -76 -67.5t-89 -47.5l-49 50q25 20 55 55.5t50 71.5zM163 720q18 -46 34.5 -85t32.5 -75t33.5 -72t38.5 -77q20 40 37 76t33 72.5t31.5 75.5t33.5 85h132q-26 -60 -49 -111.5t-47 -101.5t-51.5 -102t-62.5 -112v-293h-119v292q-34 61 -61 113.5
t-51.5 102.5t-48 101.5t-49.5 110.5h133z" />
    <glyph glyph-name="Thorn" unicode="&#xde;" 
d="M61 720h119v-132h119q115 0 181.5 -56t66.5 -172t-65.5 -171t-181.5 -55h-120v-132h-119v718zM180 230h120q125 0 125 128q0 68 -33 101t-93 33h-119v-262z" />
    <glyph glyph-name="germandbls" unicode="&#xdf;" 
d="M62 0v528q0 53 14 96.5t41.5 74t69.5 47t97 16.5q51 0 91.5 -13t68 -36.5t42.5 -56t15 -71.5q0 -27 -7.5 -46.5t-19.5 -34.5t-27 -25.5t-31 -19.5q-17 -10 -30 -20t-13 -23q0 -12 14 -21t34 -19q26 -13 49.5 -29t40.5 -36t27 -47t10 -63q0 -45 -15 -82.5t-42 -63.5
t-64 -40.5t-81 -14.5h-91l-12 97h96q36 0 62 27.5t26 84.5q0 38 -24 62.5t-57 41.5q-16 9 -31.5 19.5t-27.5 23t-19 27.5t-7 32q0 35 22 55.5t48 34.5q20 11 34.5 28.5t14.5 48.5q0 34 -24 58.5t-73 24.5q-54 0 -79 -36t-25 -105v-524h-117z" />
    <glyph glyph-name="agrave" unicode="&#xe0;" 
d="M286 742q9 -17 21.5 -35.5t27 -35t28.5 -31t26 -24.5l-48 -50q-45 18 -88.5 47.5t-75.5 67.5zM281 557q50 0 92.5 -15.5t74.5 -43t50 -64.5t18 -79v-316q-66 -20 -122.5 -33t-116.5 -13q-40 0 -78.5 12.5t-68.5 36t-48.5 58t-18.5 78.5q0 43 17.5 73.5t45.5 50t63.5 29
t71.5 9.5q40 0 74.5 -10t64.5 -27v52q0 23 -10 43t-27 34.5t-38 23t-44 8.5q-37 0 -66.5 -26t-51.5 -60l-89 66q14 23 34.5 43t46.5 36t58 25t68 9zM400 193q-32 26 -67 42.5t-68 16.5q-16 0 -31.5 -4t-27.5 -13t-19.5 -23t-7.5 -34q0 -24 9 -41t24 -28.5t33.5 -16.5
t37.5 -5q29 0 57 4t60 13v89z" />
    <glyph glyph-name="aacute" unicode="&#xe1;" 
d="M300 742l109 -61q-32 -38 -75.5 -67.5t-88.5 -47.5l-48 50q12 10 26 24t28 31t27 35t22 36zM281 557q50 0 92.5 -15.5t74.5 -43t50 -64.5t18 -79v-316v1v-1q-66 -20 -122 -33t-117 -13q-40 0 -78.5 12.5t-68.5 36t-48.5 58t-18.5 78.5q0 43 17.5 73.5t45.5 50t63.5 29
t71.5 9.5q40 0 74.5 -10t64.5 -27v52q0 23 -10 43t-27 34.5t-38 23t-44 8.5q-37 0 -66.5 -26t-51.5 -60l-89 66q14 23 34.5 43t46.5 36t58 25t68 9zM400 193q-32 26 -67 42.5t-68 16.5q-16 0 -31.5 -4t-27.5 -13t-19.5 -23t-7.5 -34q0 -24 9 -41t24 -28.5t33.5 -16.5
t37.5 -5q29 0 57 4t60 13v89z" />
    <glyph glyph-name="acircumflex" unicode="&#xe2;" 
d="M252 714h86q29 -30 60 -67.5t59 -74.5h-127q-18 30 -36 55q-9 -14 -17.5 -27t-16.5 -28h-127q27 37 59 75t60 67zM281 557q50 0 92.5 -15.5t74.5 -43t50 -64.5t18 -79v-316q-66 -20 -122.5 -33t-116.5 -13q-40 0 -78.5 12.5t-68.5 36t-48.5 58t-18.5 78.5q0 43 17.5 73.5
t45.5 50t63.5 29t71.5 9.5q40 0 74.5 -10t64.5 -27v52q0 23 -10 43t-27 34.5t-38 23t-44 8.5q-37 0 -66.5 -26t-51.5 -60l-89 66q14 23 34.5 43t46.5 36t58 25t68 9zM400 193q-32 26 -67 42.5t-68 16.5q-16 0 -31.5 -4t-27.5 -13t-19.5 -23t-7.5 -34q0 -24 9 -41t24 -28.5
t33.5 -16.5t37.5 -5q29 0 57 4t60 13v89z" />
    <glyph glyph-name="atilde" unicode="&#xe3;" 
d="M461 651q-9 -13 -20 -26t-24.5 -23t-30 -16.5t-34.5 -6.5q-23 0 -39.5 7.5t-31.5 17.5q-11 8 -19.5 12.5t-15.5 4.5q-9 0 -21.5 -12.5t-26.5 -29.5l-64 53q18 27 46.5 50t65.5 23q22 0 39 -7t31 -17q10 -6 19.5 -11.5t17.5 -5.5t20 12.5t24 29.5zM281 557
q50 0 92.5 -15.5t74.5 -43t50 -64.5t18 -79v-316l-1 1l1 -1q-66 -20 -122.5 -33t-116.5 -13q-40 0 -78.5 12.5t-68.5 36t-48.5 58t-18.5 78.5q0 43 17.5 73.5t45.5 50t63.5 29t71.5 9.5q40 0 74.5 -10t64.5 -27v52q0 23 -10 43t-27 34.5t-38 23t-44 8.5q-37 0 -66.5 -26
t-51.5 -60l-89 66q14 23 34.5 43t46.5 36t58 25t68 9zM400 193q-32 26 -67 42.5t-68 16.5q-16 0 -31.5 -4t-27.5 -13t-19.5 -23t-7.5 -34q0 -24 9 -41t24 -28.5t33.5 -16.5t37.5 -5q29 0 57 4t60 13v89z" />
    <glyph glyph-name="adieresis" unicode="&#xe4;" 
d="M138 641q0 28 17 43.5t47 15.5q29 0 48 -15.5t19 -43.5t-19 -43t-48 -15q-30 0 -47 15t-17 43zM332 641q0 28 17 43.5t47 15.5q29 0 48 -15.5t19 -43.5t-19 -43t-48 -15q-30 0 -47 15t-17 43zM281 557q50 0 92.5 -15.5t74.5 -43t50 -64.5t18 -79v-316h-1
q-65 -20 -121.5 -33t-116.5 -13q-40 0 -78.5 12.5t-68.5 36t-48.5 58t-18.5 78.5q0 43 17.5 73.5t45.5 50t63.5 29t71.5 9.5q40 0 74.5 -10t64.5 -27v52q0 23 -10 43t-27 34.5t-38 23t-44 8.5q-37 0 -66.5 -26t-51.5 -60l-89 66q14 23 34.5 43t46.5 36t58 25t68 9zM400 193
q-32 26 -67 42.5t-68 16.5q-16 0 -31.5 -4t-27.5 -13t-19.5 -23t-7.5 -34q0 -24 9 -41t24 -28.5t33.5 -16.5t37.5 -5q29 0 57 4t60 13v89z" />
    <glyph glyph-name="aring" unicode="&#xe5;" 
d="M178 635q0 52 33 79t84 27t84.5 -27t33.5 -79q0 -31 -12.5 -54t-35.5 -37q68 -22 109.5 -72.5t41.5 -116.5v-316h-1q-65 -20 -121.5 -33t-116.5 -13q-40 0 -78.5 12.5t-68.5 36t-48.5 58t-18.5 78.5q0 43 17.5 73.5t45.5 50t63.5 29t71.5 9.5q40 0 74.5 -10t64.5 -27v52
q0 23 -10 43t-27 34.5t-38 23t-44 8.5q-37 0 -66.5 -26t-51.5 -60l-89 66q21 35 57.5 63.5t86.5 41.5q-19 14 -29.5 35.5t-10.5 50.5zM270 635q0 -17 7 -26t18 -9t18.5 9.5t7.5 25.5q0 17 -8 24t-19 7t-17.5 -7.5t-6.5 -23.5zM400 193q-32 26 -67 42.5t-68 16.5
q-16 0 -31.5 -4t-27.5 -13t-19.5 -23t-7.5 -34q0 -24 9 -41t24 -28.5t33.5 -16.5t37.5 -5q29 0 57 4t60 13v89z" />
    <glyph glyph-name="ae" unicode="&#xe6;" 
d="M195 557q37 0 64.5 -15t46.5 -37q19 22 44.5 37t56.5 15q47 0 78.5 -22t51 -59t28 -86.5t8.5 -103.5v-51h-223q4 -80 21 -114t43 -34q24 0 38 26t25 68l97 -39q-20 -72 -59 -110.5t-102 -38.5q-32 0 -58.5 11t-50.5 37q-26 -24 -54.5 -36t-56.5 -12q-74 0 -120.5 48
t-46.5 137q0 78 42.5 120t106.5 42q21 0 38.5 -4t31.5 -11v34q0 49 -13 77t-37 28q-19 0 -35 -19t-35 -51l-87 54q13 24 28 44t34 34.5t42.5 22.5t52.5 8zM459 318q-4 70 -16 108t-35 38q-29 0 -42.5 -38.5t-15.5 -107.5h109zM245 228q-14 11 -28.5 17.5t-28.5 6.5
q-21 0 -34 -22t-13 -52q0 -44 15 -67.5t42 -23.5q10 0 22.5 5t24.5 16v120z" />
    <glyph glyph-name="ccedilla" unicode="&#xe7;" 
d="M301 557q88 0 147 -47t77 -129l-108 -26q-15 47 -44.5 78t-74.5 31q-54 0 -82 -45.5t-28 -140.5q0 -52 8 -88t23 -59t36 -33.5t46 -10.5q26 0 46.5 11t37 29t29 40t21.5 44l96 -59q-9 -25 -24 -50.5t-36.5 -46.5t-51 -36.5t-67.5 -21.5l-2 -11q77 -20 77 -82
q0 -26 -10.5 -45.5t-28.5 -32.5t-42 -19.5t-50 -6.5q-31 0 -57.5 7t-46.5 13l22 71q18 -5 42 -11.5t38 -6.5q31 0 31 30q0 11 -8 18.5t-21 7.5h-58l15 69q-92 17 -137 89.5t-45 187.5q0 65 14.5 117.5t43.5 89t72 56t100 19.5z" />
    <glyph glyph-name="egrave" unicode="&#xe8;" 
d="M303 742q9 -17 22 -35.5t27 -35t28.5 -31t26.5 -24.5l-49 -50q-45 18 -88.5 47.5t-75.5 67.5zM301 557q62 0 105 -22t70 -60.5t39 -89.5t12 -109v-41h-336q2 -29 8.5 -55.5t19.5 -47t33 -33t49 -12.5q25 0 45 10t36 25.5t28.5 35.5t21.5 41l96 -59q-26 -66 -82 -106.5
t-141 -40.5q-60 0 -103.5 20.5t-72.5 57t-43 88t-14 114.5q0 59 13 110.5t40.5 90t71 61t104.5 22.5zM405 318q-8 69 -33 107.5t-71 38.5q-30 0 -50 -12.5t-33 -32.5t-19.5 -46.5t-8.5 -54.5h215z" />
    <glyph glyph-name="eacute" unicode="&#xe9;" 
d="M299 742l109 -61q-32 -38 -76 -67.5t-89 -47.5l-48 50q12 10 26 24t28 31t27 35t23 36zM301 557q62 0 105 -22t70 -60.5t39 -89.5t12 -109v-41h-336q2 -29 8.5 -55.5t19.5 -47t33 -33t49 -12.5q25 0 45 10t36 25.5t28.5 35.5t21.5 41l96 -59q-26 -66 -82 -106.5
t-141 -40.5q-60 0 -103.5 20.5t-72.5 57t-43 88t-14 114.5q0 59 13 110.5t40.5 90t71 61t104.5 22.5zM405 318q-8 69 -33 107.5t-71 38.5q-30 0 -50 -12.5t-33 -32.5t-19.5 -46.5t-8.5 -54.5h215z" />
    <glyph glyph-name="ecircumflex" unicode="&#xea;" 
d="M252 714h86q30 -30 61 -67.5t58 -74.5h-127q-18 30 -36 55q-9 -14 -17.5 -27t-16.5 -28h-127q28 37 59.5 75t59.5 67zM301 557q62 0 105 -22t70 -60.5t39 -89.5t12 -109v-41h-336q2 -29 8.5 -55.5t19.5 -47t33 -33t49 -12.5q25 0 45 10t36 25.5t28.5 35.5t21.5 41l96 -59
q-26 -66 -82 -106.5t-141 -40.5q-60 0 -103.5 20.5t-72.5 57t-43 88t-14 114.5q0 59 13 110.5t40.5 90t71 61t104.5 22.5zM405 318q-8 69 -33 107.5t-71 38.5q-30 0 -50 -12.5t-33 -32.5t-19.5 -46.5t-8.5 -54.5h215z" />
    <glyph glyph-name="edieresis" unicode="&#xeb;" 
d="M146 641q0 28 17 43.5t47 15.5q29 0 48 -15.5t19 -43.5t-19 -43t-48 -15q-30 0 -47 15t-17 43zM339 641q0 28 17 43.5t48 15.5q29 0 47.5 -15.5t18.5 -43.5t-18.5 -43t-47.5 -15q-31 0 -48 15t-17 43zM301 557q62 0 105 -22t70 -60.5t39 -89.5t12 -109v-41h-336
q2 -29 8.5 -55.5t19.5 -47t33 -33t49 -12.5q25 0 45 10t36 25.5t28.5 35.5t21.5 41l96 -59q-26 -66 -82 -106.5t-141 -40.5q-60 0 -103.5 20.5t-72.5 57t-43 88t-14 114.5q0 59 13 110.5t40.5 90t71 61t104.5 22.5zM405 318q-8 69 -33 107.5t-71 38.5q-30 0 -50 -12.5
t-33 -32.5t-19.5 -46.5t-8.5 -54.5h215z" />
    <glyph glyph-name="igrave" unicode="&#xec;" 
d="M303 742q9 -17 22 -35.5t27 -35t28.5 -31t26.5 -24.5l-49 -50q-45 18 -88.5 47.5t-75.5 67.5zM114 550h255v-453h124v-97h-388v97h152v358h-143v95z" />
    <glyph glyph-name="iacute" unicode="&#xed;" 
d="M307 742l109 -61q-32 -38 -75.5 -67.5t-88.5 -47.5l-49 50q12 10 26.5 24t28.5 31t27 35t22 36zM114 550h255v-453h124v-97h-388v97h152v358h-143v95z" />
    <glyph glyph-name="icircumflex" unicode="&#xee;" 
d="M252 714h86q30 -30 61 -67.5t58 -74.5h-127q-18 30 -36 55q-9 -14 -17.5 -27t-16.5 -28h-127q28 37 59.5 75t59.5 67zM114 550h255v-453h124v-97h-388v97h152v358h-143v95z" />
    <glyph glyph-name="idieresis" unicode="&#xef;" 
d="M125 641q0 28 17 43.5t47 15.5q29 0 47.5 -15.5t18.5 -43.5t-18.5 -43t-47.5 -15q-30 0 -47 15t-17 43zM318 641q0 28 17 43.5t48 15.5q29 0 47.5 -15.5t18.5 -43.5t-18.5 -43t-47.5 -15q-31 0 -48 15t-17 43zM114 550h255v-453h124v-97h-388v97h152v358h-143v95z" />
    <glyph glyph-name="eth" unicode="&#xf0;" 
d="M207 751q29 -15 58 -33t58 -40l84 65l60 -69l-75 -58q56 -58 92.5 -138.5t36.5 -190.5q0 -72 -17.5 -126.5t-48 -92t-71.5 -56.5t-87 -19q-54 0 -97 18t-72.5 49.5t-45 75.5t-15.5 95q0 47 15 88.5t43 72t67 48.5t87 18q30 0 57.5 -9t50.5 -23q-14 38 -34 68.5t-45 56.5
l-122 -94l-60 69l112 86q-21 15 -42 28.5t-42 26.5zM407 266q-29 42 -60.5 69t-61.5 27q-23 0 -42 -10.5t-32.5 -28.5t-21 -41.5t-7.5 -50.5q0 -34 9.5 -60.5t25 -45t36.5 -28t44 -9.5q45 0 75 44.5t35 133.5z" />
    <glyph glyph-name="ntilde" unicode="&#xf1;" 
d="M459 651q-9 -13 -20 -26t-24.5 -23t-30 -16.5t-34.5 -6.5q-23 0 -39 7.5t-32 17.5q-11 8 -19.5 12.5t-15.5 4.5q-9 0 -21.5 -12.5t-25.5 -29.5l-65 53q18 27 46.5 50t65.5 23q22 0 39 -7t31 -17q10 -6 19.5 -11.5t17.5 -5.5t20 12.5t25 29.5zM80 550h115v-38q26 19 58 32
t72 13q47 0 83 -16.5t60.5 -46t37 -70t12.5 -87.5v-337h-114v331q0 60 -21 96.5t-63 36.5q-32 0 -64.5 -26.5t-60.5 -71.5v-366h-115v550z" />
    <glyph glyph-name="ograve" unicode="&#xf2;" 
d="M303 742q9 -17 22 -35.5t27 -35t28.5 -31t26.5 -24.5l-49 -50q-45 18 -88.5 47.5t-75.5 67.5zM72 276q0 57 13 108.5t40.5 89.5t70.5 60.5t103 22.5q61 0 104 -22.5t70.5 -61.5t40.5 -91t13 -111q0 -58 -12.5 -108.5t-39.5 -88t-70 -59.5t-103 -22q-62 0 -106 23
t-71.5 61.5t-40 90t-12.5 108.5zM189 279q0 -35 5 -69.5t18 -61.5t34.5 -44t55.5 -17q33 0 54 16.5t33 43t16.5 60t4.5 67.5q0 35 -4.5 69t-17 61t-34 43.5t-55.5 16.5q-33 0 -54.5 -16t-34 -42.5t-17 -59.5t-4.5 -67z" />
    <glyph glyph-name="oacute" unicode="&#xf3;" 
d="M299 742l109 -61q-32 -38 -76 -67.5t-89 -47.5l-48 50q12 10 26 24t28 31t27 35t23 36zM72 276q0 57 13 108.5t40.5 89.5t70.5 60.5t103 22.5q61 0 104 -22.5t70.5 -61.5t40.5 -91t13 -111q0 -58 -12.5 -108.5t-39.5 -88t-70 -59.5t-103 -22q-62 0 -106 23t-71.5 61.5
t-40 90t-12.5 108.5zM189 279q0 -35 5 -69.5t18 -61.5t34.5 -44t55.5 -17q33 0 54 16.5t33 43t16.5 60t4.5 67.5q0 35 -4.5 69t-17 61t-34 43.5t-55.5 16.5q-33 0 -54.5 -16t-34 -42.5t-17 -59.5t-4.5 -67z" />
    <glyph glyph-name="ocircumflex" unicode="&#xf4;" 
d="M252 714h86q30 -30 61 -67.5t58 -74.5h-127q-18 30 -36 55q-9 -14 -17.5 -27t-16.5 -28h-127q28 37 59.5 75t59.5 67zM72 276q0 57 13 108.5t40.5 89.5t70.5 60.5t103 22.5q61 0 104 -22.5t70.5 -61.5t40.5 -91t13 -111q0 -58 -12.5 -108.5t-39.5 -88t-70 -59.5t-103 -22
q-62 0 -106 23t-71.5 61.5t-40 90t-12.5 108.5zM189 279q0 -35 5 -69.5t18 -61.5t34.5 -44t55.5 -17q33 0 54 16.5t33 43t16.5 60t4.5 67.5q0 35 -4.5 69t-17 61t-34 43.5t-55.5 16.5q-33 0 -54.5 -16t-34 -42.5t-17 -59.5t-4.5 -67z" />
    <glyph glyph-name="otilde" unicode="&#xf5;" 
d="M459 651q-9 -13 -20 -26t-24.5 -23t-30 -16.5t-34.5 -6.5q-23 0 -39 7.5t-32 17.5q-11 8 -19.5 12.5t-15.5 4.5q-9 0 -21.5 -12.5t-25.5 -29.5l-65 53q18 27 46.5 50t65.5 23q22 0 39 -7t31 -17q10 -6 19.5 -11.5t17.5 -5.5t20 12.5t25 29.5zM72 276q0 57 13 108.5
t40.5 89.5t70.5 60.5t103 22.5q61 0 104 -22.5t70.5 -61.5t40.5 -91t13 -111q0 -58 -12.5 -108.5t-39.5 -88t-70 -59.5t-103 -22q-62 0 -106 23t-71.5 61.5t-40 90t-12.5 108.5zM189 279q0 -35 5 -69.5t18 -61.5t34.5 -44t55.5 -17q33 0 54 16.5t33 43t16.5 60t4.5 67.5
q0 35 -4.5 69t-17 61t-34 43.5t-55.5 16.5q-33 0 -54.5 -16t-34 -42.5t-17 -59.5t-4.5 -67z" />
    <glyph glyph-name="odieresis" unicode="&#xf6;" 
d="M140 641q0 28 17 43.5t47 15.5q29 0 48 -15.5t19 -43.5t-19 -43t-48 -15q-30 0 -47 15t-17 43zM334 641q0 28 17 43.5t47 15.5q29 0 48 -15.5t19 -43.5t-19 -43t-48 -15q-30 0 -47 15t-17 43zM72 276q0 57 13 108.5t40.5 89.5t70.5 60.5t103 22.5q61 0 104 -22.5
t70.5 -61.5t40.5 -91t13 -111q0 -58 -12.5 -108.5t-39.5 -88t-70 -59.5t-103 -22q-62 0 -106 23t-71.5 61.5t-40 90t-12.5 108.5zM189 279q0 -35 5 -69.5t18 -61.5t34.5 -44t55.5 -17q33 0 54 16.5t33 43t16.5 60t4.5 67.5q0 35 -4.5 69t-17 61t-34 43.5t-55.5 16.5
q-33 0 -54.5 -16t-34 -42.5t-17 -59.5t-4.5 -67z" />
    <glyph glyph-name="divide" unicode="&#xf7;" 
d="M227 527q0 29 21 48.5t51 19.5t51 -19.5t21 -48.5q0 -28 -21 -47.5t-51 -19.5t-51 19.5t-21 47.5zM60 414h480v-98h-480v98zM227 200q0 28 21 47.5t51 19.5t51 -19.5t21 -47.5q0 -29 -21 -48.5t-51 -19.5t-51 19.5t-21 48.5z" />
    <glyph glyph-name="oslash" unicode="&#xf8;" 
d="M533 575l-61 -103q28 -38 40.5 -90t12.5 -111q0 -58 -12.5 -108.5t-39.5 -88t-70 -59.5t-103 -22q-56 0 -99 20l-19 -32h-114l56 95q-29 39 -41.5 90.5t-12.5 109.5q0 57 13 108.5t40.5 89.5t70.5 60.5t103 22.5q56 0 99 -20l23 38h114zM187 279q0 -46 7 -84l152 257
q-11 5 -23 8.5t-26 3.5q-33 0 -54.5 -16t-34 -42.5t-17 -59.5t-4.5 -67zM251 99q21 -12 49 -12q33 0 54 16.5t33 43t16.5 60t4.5 67.5q0 42 -6 79z" />
    <glyph glyph-name="ugrave" unicode="&#xf9;" 
d="M274 742q9 -17 22 -35.5t27 -35t28.5 -31t26.5 -24.5l-49 -50q-45 18 -88.5 47.5t-75.5 67.5zM80 550h115v-347q0 -55 27 -85.5t72 -30.5q23 0 50 4t54 12v447h115v-510q-25 -9 -54 -17.5t-58.5 -15t-58.5 -10.5t-55 -4q-46 0 -84 15.5t-65.5 42.5t-42.5 64t-15 79v356z
" />
    <glyph glyph-name="uacute" unicode="&#xfa;" 
d="M310 742l109 -61q-32 -38 -75.5 -67.5t-88.5 -47.5l-49 50q12 10 26.5 24t28.5 31t27 35t22 36zM80 550h115v-347q0 -55 27 -85.5t72 -30.5q23 0 50 4t54 12v447h115v-509q-51 -20 -112.5 -34t-113.5 -14q-46 0 -84 15.5t-65.5 42.5t-42.5 64t-15 79v356z" />
    <glyph glyph-name="ucircumflex" unicode="&#xfb;" 
d="M250 714h86q30 -30 60.5 -67.5t58.5 -74.5h-127q-18 30 -36 55q-9 -14 -17.5 -27t-16.5 -28h-127q28 37 59.5 75t59.5 67zM80 550h115v-347q0 -55 27 -85.5t72 -30.5q23 0 50 4t54 12v447h115v-510v0h-1q-25 -9 -54 -17.5t-58.5 -15t-58 -10.5t-54.5 -4q-46 0 -84 15.5
t-65.5 42.5t-42.5 64t-15 79v356z" />
    <glyph glyph-name="udieresis" unicode="&#xfc;" 
d="M139 641q0 28 17 43.5t47 15.5q29 0 48 -15.5t19 -43.5t-19 -43t-48 -15q-30 0 -47 15t-17 43zM333 641q0 28 17 43.5t47 15.5q29 0 47.5 -15.5t18.5 -43.5t-18.5 -43t-47.5 -15q-30 0 -47 15t-17 43zM80 550h115v-347q0 -55 27 -85.5t72 -30.5q23 0 50 4t54 12v447h115
v-510q-25 -9 -54 -17.5t-58.5 -15t-58.5 -10.5t-55 -4q-46 0 -84 15.5t-65.5 42.5t-42.5 64t-15 79v356z" />
    <glyph glyph-name="yacute" unicode="&#xfd;" 
d="M308 742l109 -61q-32 -38 -75.5 -67.5t-88.5 -47.5l-49 50q12 10 26.5 24t28.5 31t27 35t22 36zM164 550q18 -64 34.5 -116.5t32.5 -101t34 -96t39 -101.5q19 51 35 97.5t31 95t30.5 102.5t34.5 120h123q-55 -178 -102.5 -310.5t-91.5 -239.5q-18 -44 -37 -80.5t-42 -63
t-52.5 -41.5t-69.5 -15q-33 0 -61.5 10.5t-51.5 24.5l35 87q20 -11 41.5 -20t36.5 -9q26 0 45.5 25t39.5 73q-36 87 -63 154.5t-50 130.5t-45 128t-49 146h123z" />
    <glyph glyph-name="thorn" unicode="&#xfe;" 
d="M80 762h118v-246q26 18 57 29.5t69 11.5q49 0 88.5 -19t67 -55t42 -87t14.5 -115q0 -73 -18.5 -127.5t-50 -90t-73 -53t-86.5 -17.5q-32 0 -59.5 7.5t-50.5 19.5v-213h-118v955zM198 145q24 -27 51 -42.5t53 -15.5q23 0 44.5 11t37.5 34t25.5 60.5t9.5 89.5q0 88 -27 135
t-75 47q-32 0 -62.5 -26.5t-56.5 -65.5v-227z" />
    <glyph glyph-name="ydieresis" unicode="&#xff;" 
d="M138 641q0 28 17 43.5t48 15.5q29 0 47.5 -15.5t18.5 -43.5t-18.5 -43t-47.5 -15q-31 0 -48 15t-17 43zM332 641q0 28 17 43.5t47 15.5q29 0 48 -15.5t19 -43.5t-19 -43t-48 -15q-30 0 -47 15t-17 43zM164 550q18 -64 34.5 -116.5t32.5 -101t34 -96t39 -101.5
q19 51 35 97.5t31 95t30.5 102.5t34.5 120h123q-55 -178 -102.5 -310.5t-91.5 -239.5q-18 -44 -37 -80.5t-42 -63t-52.5 -41.5t-69.5 -15q-33 0 -61.5 10.5t-51.5 24.5l35 87q20 -11 41.5 -20t36.5 -9q26 0 45.5 25t39.5 73q-36 87 -63 154.5t-50 130.5t-45 128t-49 146h123
z" />
    <glyph glyph-name="Zcaron" unicode="&#x17d;" 
d="M132 888h128q8 -15 16 -29t19 -28q10 14 18.5 28t17.5 29h128q-17 -22 -31.5 -40t-28 -34.5t-28.5 -33t-33 -34.5h-86q-28 29 -58 64.5t-62 77.5zM88 720h422v-83l-309 -539h337v-98h-477v82l307 540h-280v98z" />
    <glyph glyph-name="zcaron" unicode="&#x17e;" 
d="M129 714h127q8 -15 16 -29t19 -28q19 27 35 57h127q-17 -22 -31 -40t-27.5 -34.5t-28 -32.5t-32.5 -35h-86q-28 29 -57.5 64.5t-61.5 77.5zM99 550h388v-66l-265 -394h296v-90h-438v69l263 391h-244v90z" />
    <glyph glyph-name="onesuperior" unicode="&#xb9;" 
d="M166 704l122 65h73v-324h74v-75h-248v75h78v219l-58 -30z" />
    <glyph glyph-name="twosuperior" unicode="&#xb2;" 
d="M165 690q12 15 26 29t31 25t37 18t44 7q30 0 53.5 -10.5t40 -27t25 -37.5t8.5 -43q0 -20 -5 -37t-14 -32.5t-21 -30.5t-25 -31l-63 -75h135v-75h-259v56l109 130q19 23 33 45.5t14 48.5q0 20 -8.5 31.5t-24.5 11.5q-17 0 -36.5 -17t-38.5 -39z" />
    <glyph glyph-name="threesuperior" unicode="&#xb3;" 
d="M170 699q25 33 58 53t71 20q27 0 50.5 -8.5t41 -24t27.5 -36.5t10 -47q0 -24 -14 -45t-39 -37q29 -14 46.5 -37t17.5 -52t-12 -51.5t-31.5 -37.5t-44 -22.5t-50.5 -7.5q-43 0 -80 21.5t-63 53.5l62 53q18 -20 39 -36.5t41 -16.5q17 0 30.5 12t13.5 33q0 26 -17.5 38
t-34.5 12h-52v66h49q16 0 30.5 13t14.5 36q0 20 -10.5 32.5t-27.5 12.5t-34 -15.5t-30 -31.5z" />
    <glyph glyph-name="quotesinglbase" unicode="&#x201a;" 
d="M402 67q0 -61 -26.5 -105.5t-67.5 -77.5l-50 39q16 15 27.5 33.5t16.5 39.5q-25 7 -39.5 25.5t-14.5 45.5q0 33 21 54t56 21q34 0 55.5 -21t21.5 -54z" />
    <glyph glyph-name="florin" unicode="&#x192;" 
d="M71 521h76q-1 19 -1 36v31q0 41 14 74.5t40.5 57.5t63.5 37t82 13q62 0 115 -20t85 -46l-48 -81q-29 22 -70.5 38.5t-77.5 16.5q-44 0 -68 -24t-24 -69q0 -14 0.5 -30t1.5 -34h262v-89h-258q2 -38 4.5 -79t5.5 -81q2 -42 4.5 -84.5t4.5 -82t3.5 -73t1.5 -57.5
q0 -85 -49 -134.5t-141 -49.5q-24 0 -52 4.5t-54 11.5l25 88q21 -5 42.5 -8t35.5 -3q42 0 61.5 23t19.5 71q0 23 -1.5 56t-3.5 71.5t-4.5 81t-5.5 84.5q-2 40 -4.5 81t-4.5 80h-81v89z" />
    <glyph glyph-name="quotedblbase" unicode="&#x201e;" 
d="M279 67q0 -61 -26.5 -105.5t-67.5 -77.5l-50 39q16 15 27.5 33.5t16.5 39.5q-25 7 -39.5 25.5t-14.5 45.5q0 33 21 54t56 21q34 0 55.5 -21t21.5 -54zM476 67q0 -61 -26.5 -105.5t-67.5 -77.5l-50 39q16 15 27.5 33.5t16.5 39.5q-25 7 -39.5 25.5t-14.5 45.5q0 33 21 54
t56 21q34 0 55.5 -21t21.5 -54z" />
    <glyph glyph-name="ellipsis" unicode="&#x2026;" 
d="M34 64q0 33 21 50.5t56 17.5q34 0 54.5 -17.5t20.5 -50.5q0 -34 -20.5 -52.5t-54.5 -18.5q-35 0 -56 18.5t-21 52.5zM223 64q0 33 20.5 50.5t55.5 17.5q34 0 55 -17.5t21 -50.5q0 -34 -21 -52.5t-55 -18.5q-35 0 -55.5 18.5t-20.5 52.5zM410 64q0 33 21 50.5t56 17.5
q34 0 54.5 -17.5t20.5 -50.5q0 -34 -20.5 -52.5t-54.5 -18.5q-35 0 -56 18.5t-21 52.5z" />
    <glyph glyph-name="dagger" unicode="&#x2020;" 
d="M240 769h119v-214h130v-99h-130v-621h-119v621h-129v99h129v214z" />
    <glyph glyph-name="daggerdbl" unicode="&#x2021;" 
d="M240 769h119v-214h130v-98h-130v-309h130v-98h-130v-215h-119v215h-129v98h129v309h-129v98h129v214z" />
    <glyph glyph-name="circumflex" unicode="&#x2c6;" 
d="M257 749h86q30 -30 61.5 -68t59.5 -74h-128q-9 14 -17.5 27.5t-18.5 27.5q-10 -14 -18.5 -27.5t-16.5 -27.5h-128q28 36 59.5 74.5t60.5 67.5z" />
    <glyph glyph-name="perthousand" unicode="&#x2030;" 
d="M26 546q0 88 36 134.5t99 46.5t99 -45t36 -132t-36 -135.5t-101 -48.5q-62 0 -97.5 45.5t-35.5 134.5zM439 720h119l-132 -318h-105zM132 547q0 -45 6.5 -69.5t22.5 -24.5q28 0 28 97q0 90 -26 90q-17 0 -24 -24t-7 -69zM304 173q0 89 35.5 135.5t99.5 46.5
q63 0 98.5 -45t35.5 -133q0 -87 -35.5 -135.5t-100.5 -48.5q-63 0 -98 46t-35 134zM26 173q0 89 36 135.5t99 46.5t99 -45t36 -133q0 -87 -36 -135.5t-101 -48.5q-62 0 -97.5 46t-35.5 134zM410 174q0 -44 6.5 -69t22.5 -25q28 0 28 97q0 47 -6 68.5t-20 21.5
q-17 0 -24 -23.5t-7 -69.5zM132 174q0 -44 6.5 -69t22.5 -25q28 0 28 97q0 47 -6 68.5t-20 21.5q-31 0 -31 -93z" />
    <glyph glyph-name="guilsinglleft" unicode="&#x2039;" 
d="M334 475h121q-22 -24 -42 -46.5t-39 -46t-39 -48.5t-42 -55q22 -30 42 -55.5t39.5 -49.5t39 -47t40.5 -47h-120q-21 26 -40 49t-37 46t-36 48t-38 54q19 29 37 54t36.5 48.5t37.5 47t40 48.5z" />
    <glyph glyph-name="quoteleft" unicode="&#x2018;" 
d="M199 581q0 56 26 103t67 80l50 -39q-16 -15 -27.5 -33.5t-16.5 -39.5q25 -6 39.5 -25t14.5 -46q0 -33 -21 -53.5t-56 -20.5q-34 0 -55 20.5t-21 53.5z" />
    <glyph glyph-name="quoteright" unicode="&#x2019;" 
d="M401 685q0 -64 -26 -107.5t-68 -76.5l-50 39q16 15 27.5 34t16.5 39q-25 7 -39.5 26t-14.5 46q0 33 21.5 53.5t56.5 20.5q33 0 54.5 -20.5t21.5 -53.5z" />
    <glyph glyph-name="quotedblleft" unicode="&#x201c;" 
d="M124 581q0 63 26.5 106.5t67.5 76.5l50 -39q-16 -15 -27.5 -33.5t-16.5 -39.5q25 -6 39.5 -25t14.5 -46q0 -33 -21 -53.5t-56 -20.5q-34 0 -55.5 20.5t-21.5 53.5zM321 581q0 63 26.5 106.5t67.5 76.5l50 -39q-16 -15 -27.5 -33.5t-16.5 -39.5q25 -6 39.5 -25t14.5 -46
q0 -33 -21 -53.5t-56 -20.5q-34 0 -55.5 20.5t-21.5 53.5z" />
    <glyph glyph-name="quotedblright" unicode="&#x201d;" 
d="M278 685q0 -64 -26 -107.5t-68 -76.5l-50 39q16 15 27.5 34t16.5 39q-25 7 -39.5 26t-14.5 46q0 33 21.5 53.5t56.5 20.5q33 0 54.5 -20.5t21.5 -53.5zM475 685q0 -64 -26 -107.5t-67 -76.5l-50 39q15 15 27 34t17 39q-25 7 -40 26t-15 46q0 33 21.5 53.5t56.5 20.5
q34 0 55 -20.5t21 -53.5z" />
    <glyph glyph-name="bullet" unicode="&#x2022;" 
d="M201 295q0 44 27 68t72 24t71.5 -24t26.5 -68q0 -43 -26.5 -67.5t-71.5 -24.5t-72 24.5t-27 67.5z" />
    <glyph glyph-name="endash" unicode="&#x2013;" 
d="M84 344h433v-98h-433v98z" />
    <glyph glyph-name="emdash" unicode="&#x2014;" 
d="M18 344h564v-98h-564v98z" />
    <glyph glyph-name="tilde" unicode="&#x2dc;" 
d="M464 672q-17 -27 -44.5 -50t-64.5 -23q-23 0 -39.5 7t-32.5 18q-11 8 -19.5 12.5t-15.5 4.5q-9 0 -21.5 -12.5t-26.5 -29.5l-65 53q18 27 46.5 50.5t66.5 23.5q22 0 39 -7.5t31 -16.5q11 -7 20.5 -12.5t17.5 -5.5t20 13t25 29z" />
    <glyph glyph-name="trademark" unicode="&#x2122;" 
d="M15 720h344q17 -52 32 -94.5t34 -87.5q19 46 34 88t32 94h80l13 -363h-84l-6 155q-18 -45 -39 -87h-59q-22 44 -39 85l-7 -153h-84l11 287h-77v-287h-95v287h-90v76z" />
    <glyph glyph-name="guilsinglright" unicode="&#x203a;" 
d="M146 475h120q21 -25 40.5 -48.5t37.5 -47t36.5 -48.5t37.5 -54q-20 -29 -38 -54t-36.5 -48t-37.5 -46t-40 -49h-120q22 24 41.5 47t39 47t39 49.5t41.5 55.5q-22 30 -42 55t-39 48.5t-38.5 46t-41.5 46.5z" />
    <glyph glyph-name="uni00A0" unicode="&#xa0;" 
 />
    <glyph glyph-name="uni00AD" unicode="&#xad;" 
 />
    <glyph glyph-name="macron" unicode="&#xaf;" 
d="M120 770h360v-98h-360v98z" />
  </font>
</defs>
</svg>
